<svg width="18" height="18" viewBox="0 0 18 18" fill="none" xmlns="http://www.w3.org/2000/svg">
<path d="M9.00002 17.3333C4.39752 17.3333 0.666687 13.6025 0.666687 8.99999C0.666687 4.39749 4.39752 0.666656 9.00002 0.666656C13.6025 0.666656 17.3334 4.39749 17.3334 8.99999C17.3334 13.6025 13.6025 17.3333 9.00002 17.3333ZM9.00002 15.6667C10.7681 15.6667 12.4638 14.9643 13.7141 13.714C14.9643 12.4638 15.6667 10.7681 15.6667 8.99999C15.6667 7.23188 14.9643 5.53619 13.7141 4.28594C12.4638 3.0357 10.7681 2.33332 9.00002 2.33332C7.23191 2.33332 5.53622 3.0357 4.28598 4.28594C3.03573 5.53619 2.33335 7.23188 2.33335 8.99999C2.33335 10.7681 3.03573 12.4638 4.28598 13.714C5.53622 14.9643 7.23191 15.6667 9.00002 15.6667ZM8.16669 11.5H9.83335V13.1667H8.16669V11.5ZM9.83335 10.1292V10.6667H8.16669V9.41666C8.16669 9.19564 8.25449 8.98368 8.41077 8.8274C8.56705 8.67112 8.77901 8.58332 9.00002 8.58332C9.23675 8.58331 9.46861 8.51607 9.66862 8.38943C9.86864 8.26279 10.0286 8.08196 10.1298 7.86798C10.2311 7.65399 10.2695 7.41565 10.2406 7.18069C10.2117 6.94573 10.1167 6.72381 9.96655 6.54075C9.81645 6.35769 9.61745 6.22101 9.3927 6.14663C9.16796 6.07225 8.92672 6.06321 8.69704 6.12058C8.46737 6.17794 8.2587 6.29935 8.09533 6.47067C7.93195 6.64199 7.82059 6.85618 7.77419 7.08832L6.13919 6.76082C6.24055 6.25423 6.47461 5.78363 6.81745 5.39715C7.1603 5.01066 7.59962 4.72214 8.09051 4.56109C8.5814 4.40004 9.10626 4.37223 9.61142 4.4805C10.1166 4.58878 10.5839 4.82925 10.9657 5.17734C11.3475 5.52544 11.63 5.96866 11.7843 6.46171C11.9386 6.95476 11.9592 7.47994 11.8441 7.98358C11.7289 8.48722 11.4821 8.95124 11.1288 9.32821C10.7755 9.70518 10.3285 9.98158 9.83335 10.1292Z" fill="#77757E"/>
</svg>
