<svg width="19" height="15" viewBox="0 0 19 15" fill="none" xmlns="http://www.w3.org/2000/svg">
<path d="M10 11.615V13.3333H14.1667V15H4.16667V13.3333H8.33333V11.615C6.72225 11.4118 5.24068 10.6277 4.16667 9.40979C3.09266 8.19186 2.50003 6.62384 2.5 5V0H15.8333V5C15.8333 6.62384 15.2407 8.19186 14.1667 9.40979C13.0926 10.6277 11.6111 11.4118 10 11.615ZM4.16667 1.66667V5C4.16667 6.32608 4.69345 7.59785 5.63113 8.53553C6.56881 9.47322 7.84058 10 9.16667 10C10.4927 10 11.7645 9.47322 12.7022 8.53553C13.6399 7.59785 14.1667 6.32608 14.1667 5V1.66667H4.16667ZM0 1.66667H1.66667V5H0V1.66667ZM16.6667 1.66667H18.3333V5H16.6667V1.66667Z" fill="#77757E"/>
</svg>
