<svg width="17" height="18" viewBox="0 0 17 18" fill="none" xmlns="http://www.w3.org/2000/svg">
<path d="M3.85669 5.83333L5.97002 7.94667L4.79169 9.125L0.666687 5L4.79169 0.875L5.97002 2.05333L3.85669 4.16667H9.83335C11.6015 4.16667 13.2972 4.86905 14.5474 6.11929C15.7976 7.36953 16.5 9.06522 16.5 10.8333C16.5 12.6014 15.7976 14.2971 14.5474 15.5474C13.2972 16.7976 11.6015 17.5 9.83335 17.5H2.33335V15.8333H9.83335C11.1594 15.8333 12.4312 15.3066 13.3689 14.3689C14.3066 13.4312 14.8334 12.1594 14.8334 10.8333C14.8334 9.50725 14.3066 8.23548 13.3689 7.2978C12.4312 6.36012 11.1594 5.83333 9.83335 5.83333H3.85669Z" fill="#77757E"/>
</svg>
