<svg xmlns="http://www.w3.org/2000/svg" width="16" height="16" fill="none" viewBox="0 0 16 16"><circle cx="8" cy="8" r="7.5" stroke="#77757E"/><path fill="#77757E" d="M8.32277 7.26412C7.20958 7.4718 6.65279 8.34252 6.65279 9.87617C6.65279 10.6674 6.79059 11.2817 7.06608 11.7193C7.34138 12.1569 7.66517 12.3756 8.03764 12.3756C8.42153 12.3756 8.73774 12.1657 8.98609 11.7458C9.23406 11.3258 9.35827 10.7535 9.35827 10.0287C9.35827 8.98561 9.01333 8.06401 8.32277 7.26412ZM8.06666 6.95905C7.87298 6.71148 7.6032 6.41548 7.25816 6.07073C6.87783 5.69057 6.622 5.39223 6.48991 5.17569C6.35821 4.95905 6.29221 4.7182 6.29221 4.45303C6.29221 4.06412 6.45135 3.75916 6.76924 3.53815C7.08751 3.31724 7.50248 3.20449 8.01452 3.20001C8.52647 3.20001 8.97261 3.29943 9.35266 3.49836C9.7329 3.69719 9.92461 3.97132 9.92873 4.32033C9.92873 4.48833 9.88202 4.62753 9.78888 4.73815C9.69602 4.84865 9.58743 4.9038 9.46321 4.9038C9.2847 4.9038 9.0753 4.75137 8.83481 4.44641C8.5904 4.13697 8.38484 3.92044 8.21793 3.7966C8.05122 3.67287 7.85333 3.60887 7.62455 3.60439C7.33754 3.60439 7.10268 3.67745 6.92051 3.82316C6.73835 3.96908 6.64493 4.15457 6.64128 4.38017C6.64128 4.59233 6.71701 4.79116 6.86828 4.97687C7.01937 5.16257 7.40925 5.5006 8.03764 5.99127C8.70854 6.51713 9.18182 6.92823 9.45731 7.22433C9.73271 7.52055 9.95943 7.88076 10.1379 8.30508C10.3164 8.7294 10.4036 9.17804 10.3999 9.65089C10.3999 10.4818 10.1437 11.2132 9.63171 11.8452C9.11976 12.4775 8.5186 12.7955 7.82815 12.8C7.20359 12.8 6.6762 12.5458 6.24569 12.0377C5.81518 11.5293 5.59998 10.8508 5.59998 10.0023C5.59998 9.18455 5.83662 8.50177 6.30972 7.95361C6.78272 7.40556 7.36853 7.07393 8.06666 6.95905Z"/></svg>