<svg width="16" height="16" viewBox="0 0 16 16" fill="none" xmlns="http://www.w3.org/2000/svg">
<circle cx="8" cy="8" r="7.5" stroke="#77757E"/>
<path d="M8.1335 13.2882C7.94279 13.2882 7.75545 13.2173 7.59465 13.0796C7.08452 12.6438 6.9119 11.601 7.1552 10.4233C7.30587 9.69382 7.64086 8.747 8.03459 7.78161C7.52071 6.1389 6.771 4.77435 6.75858 4.75179C6.55858 4.40233 6.24446 3.97844 5.90187 3.9747C5.90019 3.9747 5.8985 3.9747 5.89693 3.9747C5.47642 3.9747 5.02949 4.55951 4.90536 4.7653C4.76688 4.99546 4.46796 5.07049 4.23744 4.93285C4.00704 4.79497 3.93117 4.49738 4.06832 4.2665C4.14552 4.13646 4.85084 3.00014 5.89669 3.00014C5.90067 3.00014 5.90453 3.00014 5.90851 3.00014C6.55544 3.00545 7.1271 3.43368 7.60744 4.27326C7.65135 4.35227 8.13833 5.23756 8.60492 6.45289C9.34702 4.79618 10.0907 3.36842 10.1467 3.26167C10.2713 3.02318 10.5655 2.93078 10.8042 3.05563C11.0427 3.18024 11.135 3.47482 11.0104 3.71318C10.9941 3.74418 9.9211 5.80391 9.06837 7.83385C9.3843 8.94411 9.58346 10.1586 9.42833 11.2341C9.26451 12.3712 8.92386 13.0448 8.41577 13.2358C8.32289 13.2707 8.22771 13.2882 8.1335 13.2882ZM8.43435 9.47946C8.29165 9.89852 8.1785 10.2869 8.10962 10.6205C7.94122 11.4356 8.04472 11.9735 8.14762 12.211C8.2364 12.0599 8.37114 11.7388 8.4639 11.0948C8.53664 10.5895 8.51553 10.0387 8.43435 9.47946Z" fill="#77757E"/>
</svg>
