<svg width="16" height="16" viewBox="0 0 16 16" fill="none" xmlns="http://www.w3.org/2000/svg">
<circle cx="8" cy="8" r="7.5" stroke="#77757E"/>
<path d="M8.07747 3C5.50247 3 3.40247 5.2375 3.40247 8C3.40247 10.7625 5.50247 13 8.07747 13C10.665 13 12.7525 10.7625 12.7525 8C12.7525 5.2375 10.665 3 8.07747 3ZM8.02747 12.875C6.17747 12.875 4.67747 10.775 4.67747 8.175C4.67747 5.575 6.17747 3.475 8.02747 3.475C9.87747 3.475 11.3775 5.575 11.3775 8.175C11.3775 10.775 9.87747 12.875 8.02747 12.875Z" fill="#77757E"/>
<path d="M10.24 7.12503V7.65003L5.97747 7.60003V7.12503H5.58997V9.03753H5.91497V8.61253L10.265 8.65003V9.03753H10.6025V7.12503H10.24Z" fill="#77757E"/>
</svg>
