<svg width="12" height="15" viewBox="0 0 12 15" fill="none" xmlns="http://www.w3.org/2000/svg">
<path d="M6 0L11.478 1.21733C11.7827 1.28533 12 1.55533 12 1.868V8.526C12 9.86333 11.3313 11.1127 10.2187 11.854L6 14.6667L1.78133 11.854C0.668 11.112 0 9.86333 0 8.52667V1.868C0 1.55533 0.217333 1.28533 0.522 1.21733L6 0ZM6 1.366L1.33333 2.40267V8.526C1.33333 9.41733 1.77867 10.25 2.52067 10.7447L6 13.0647L9.47933 10.7447C10.2213 10.25 10.6667 9.418 10.6667 8.52667V2.40267L6 1.366Z" fill="#EC7987"/>
<path d="M5.33333 9.33333H6.66667V10.6667H5.33333V9.33333ZM5.33333 4H6.66667V8H5.33333V4Z" fill="#EC7987"/>
</svg>
