<svg xmlns="http://www.w3.org/2000/svg" width="16" height="16" fill="none" viewBox="0 0 16 16"><path fill="#49D273" d="M8 0.666656L13.478 1.88399C13.7827 1.95199 14 2.22199 14 2.53466V9.19266C14 10.53 13.3313 11.7793 12.2187 12.5207L8 15.3333L3.78133 12.5207C2.668 11.7787 2 10.53 2 9.19332V2.53466C2 2.22199 2.21733 1.95199 2.522 1.88399L8 0.666656ZM8 2.03266L3.33333 3.06932V9.19266C3.33333 10.084 3.77867 10.9167 4.52067 11.4113L8 13.7313L11.4793 11.4113C12.2213 10.9167 12.6667 10.0847 12.6667 9.19332V3.06932L8 2.03332V2.03266ZM10.968 5.48132L11.9113 6.42399L7.66867 10.6667L4.84 7.83799L5.78267 6.89532L7.668 8.78066L10.968 5.48066V5.48132Z"/></svg>