<svg xmlns="http://www.w3.org/2000/svg" width="16" height="16" fill="none" viewBox="0 0 16 16"><path fill="#F5B073" d="M8 0.666656L13.478 1.88399C13.7827 1.95199 14 2.22199 14 2.53466V9.19266C14 10.53 13.3313 11.7793 12.2187 12.5207L8 15.3333L3.78133 12.5207C2.668 11.7787 2 10.53 2 9.19332V2.53466C2 2.22199 2.21733 1.95199 2.522 1.88399L8 0.666656ZM8 2.03266L3.33333 3.06932V9.19266C3.33333 10.084 3.77867 10.9167 4.52067 11.4113L8 13.7313L11.4793 11.4113C12.2213 10.9167 12.6667 10.0847 12.6667 9.19332V3.06932L8 2.03266Z"/><path fill="#F5B073" d="M7.39137 9.747H8.7247V11.0803H7.39137V9.747ZM8.7247 8.65033V9.08034H7.39137V8.08034C7.39137 7.90352 7.46161 7.73396 7.58663 7.60893C7.71166 7.48391 7.88122 7.41367 8.05803 7.41367C8.24742 7.41366 8.43291 7.35987 8.59292 7.25856C8.75293 7.15724 8.88088 7.01258 8.96188 6.84139C9.04289 6.6702 9.07361 6.47953 9.05049 6.29156C9.02736 6.1036 8.95134 5.92606 8.83126 5.77961C8.71118 5.63316 8.55198 5.52382 8.37218 5.46431C8.19239 5.40481 7.99939 5.39758 7.81565 5.44347C7.63191 5.48936 7.46498 5.58649 7.33428 5.72355C7.20358 5.8606 7.11449 6.03196 7.07737 6.21767L5.76937 5.95567C5.85046 5.55039 6.03771 5.17392 6.31198 4.86473C6.58626 4.55554 6.93771 4.32472 7.33043 4.19588C7.72314 4.06704 8.14303 4.04479 8.54716 4.13141C8.95129 4.21803 9.32517 4.41041 9.63058 4.68888C9.93599 4.96736 10.162 5.32194 10.2854 5.71638C10.4089 6.11082 10.4254 6.53096 10.3333 6.93387C10.2411 7.33678 10.0437 7.708 9.76105 8.00958C9.47843 8.31116 9.12079 8.53228 8.7247 8.65033Z"/></svg>