<svg xmlns="http://www.w3.org/2000/svg" width="16" height="16" fill="none" viewBox="0 0 16 16"><path fill="#77757E" d="M8 0.666656L13.478 1.88399C13.7827 1.95199 14 2.22199 14 2.53466V9.19266C14 10.53 13.3313 11.7793 12.2187 12.5207L8 15.3333L3.78133 12.5207C2.668 11.7787 2 10.53 2 9.19332V2.53466C2 2.22199 2.21733 1.95199 2.522 1.88399L8 0.666656ZM8 2.03266L3.33333 3.06932V9.19266C3.33333 10.084 3.77867 10.9167 4.52067 11.4113L8 13.7313L11.4793 11.4113C12.2213 10.9167 12.6667 10.0847 12.6667 9.19332V3.06932L8 2.03266Z"/><path fill="#77757E" d="M8.66667 3.99991V5.33324H10.3333V6.66657H6.66667C6.58337 6.66642 6.50303 6.69746 6.44148 6.75358C6.37992 6.8097 6.34161 6.88683 6.33408 6.96979C6.32656 7.05275 6.35036 7.13551 6.40081 7.2018C6.45126 7.26808 6.5247 7.31307 6.60667 7.32791L6.66667 7.33324H9.33333C9.77536 7.33324 10.1993 7.50884 10.5118 7.8214C10.8244 8.13396 11 8.55788 11 8.99991C11 9.44194 10.8244 9.86586 10.5118 10.1784C10.1993 10.491 9.77536 10.6666 9.33333 10.6666H8.66667V11.9999H7.33333V10.6666H5.66667V9.33324H9.33333C9.41663 9.3334 9.49697 9.30236 9.55852 9.24624C9.62008 9.19012 9.65839 9.11298 9.66592 9.03003C9.67344 8.94707 9.64964 8.8643 9.59919 8.79802C9.54874 8.73174 9.4753 8.68675 9.39333 8.67191L9.33333 8.66657H6.66667C6.22464 8.66657 5.80072 8.49098 5.48816 8.17842C5.17559 7.86586 5 7.44194 5 6.99991C5 6.55788 5.17559 6.13396 5.48816 5.8214C5.80072 5.50884 6.22464 5.33324 6.66667 5.33324H7.33333V3.99991H8.66667Z"/></svg>