<svg xmlns="http://www.w3.org/2000/svg" width="200" height="200" fill="none" viewBox="0 0 200 200"><g filter="url(#filter0_d)"><circle cx="100" cy="93" r="36" fill="#4FC2A0" fill-opacity=".2"/></g><path fill="#333" d="M98.9261 107.398C96.9659 107.398 95.2235 107.062 93.6989 106.389C92.1742 105.717 90.9669 104.784 90.0767 103.591C89.196 102.388 88.7225 100.996 88.6562 99.4148H93.1165C93.2017 100.703 93.7936 101.725 94.892 102.483C95.9905 103.241 97.3258 103.619 98.8977 103.619C100.612 103.619 102.018 103.184 103.116 102.312C104.224 101.432 104.778 100.286 104.778 98.875C104.778 97.4072 104.22 96.214 103.102 95.2955C101.994 94.3674 100.432 93.9034 98.4148 93.9034H95.9574V90.3239H98.4148C100.025 90.3239 101.341 89.8977 102.364 89.0455C103.386 88.1932 103.893 87.0663 103.884 85.6648C103.893 84.3201 103.448 83.2358 102.548 82.4119C101.658 81.5881 100.47 81.1761 98.983 81.1761C97.553 81.1761 96.2936 81.5597 95.2045 82.3267C94.125 83.0843 93.5616 84.1307 93.5142 85.4659H89.267C89.3144 83.8845 89.7784 82.4972 90.6591 81.304C91.5492 80.1108 92.7235 79.1828 94.1818 78.5199C95.6402 77.8475 97.2595 77.5114 99.0398 77.5114C100.905 77.5114 102.52 77.8759 103.884 78.6051C105.247 79.3343 106.298 80.3002 107.037 81.5028C107.776 82.696 108.14 84.0076 108.131 85.4375C108.14 87.0663 107.69 88.4489 106.781 89.5852C105.872 90.7216 104.655 91.4839 103.131 91.8722V92.0994C105.063 92.393 106.559 93.16 107.619 94.4006C108.689 95.6411 109.22 97.1799 109.21 99.017C109.22 100.627 108.779 102.066 107.889 103.335C106.999 104.595 105.777 105.589 104.224 106.318C102.671 107.038 100.905 107.398 98.9261 107.398Z"/><defs><filter id="filter0_d" width="200" height="200" x="0" y="0" color-interpolation-filters="sRGB" filterUnits="userSpaceOnUse"><feFlood flood-opacity="0" result="BackgroundImageFix"/><feColorMatrix in="SourceAlpha" type="matrix" values="0 0 0 0 0 0 0 0 0 0 0 0 0 0 0 0 0 0 127 0"/><feOffset dy="7"/><feGaussianBlur stdDeviation="32"/><feColorMatrix type="matrix" values="0 0 0 0 0 0 0 0 0 0 0 0 0 0 0 0 0 0 0.12 0"/><feBlend in2="BackgroundImageFix" mode="normal" result="effect1_dropShadow"/><feBlend in="SourceGraphic" in2="effect1_dropShadow" mode="normal" result="shape"/></filter></defs></svg>