<svg xmlns="http://www.w3.org/2000/svg" width="369" height="207" fill="none" viewBox="0 0 369 207"><g filter="url(#filter0_d)"><rect width="241" height="79" x="64" y="57" fill="#fff" rx="8"/></g><path fill="#4FC2A0" d="M120.516 111.909H122.652L122.663 109.352C127.47 109 130.22 106.25 130.22 102.568C130.22 98.375 126.482 96.75 123.527 96.0227L122.697 95.8068L122.72 88.5114C124.845 88.7955 126.3 89.9773 126.516 91.8409H129.902C129.811 88.375 126.947 85.7841 122.732 85.4432L122.743 82.8182H120.607L120.595 85.4659C116.516 85.875 113.527 88.4205 113.527 92.0909C113.527 95.3295 115.845 97.2273 119.584 98.2386L120.561 98.5L120.538 106.239C118.322 105.966 116.607 104.761 116.425 102.568H112.902C113.118 106.489 115.947 109.011 120.527 109.352L120.516 111.909ZM122.675 106.239L122.697 99.0909C125.004 99.7273 126.743 100.568 126.743 102.534C126.743 104.523 125.084 105.92 122.675 106.239ZM120.572 95.2386C118.879 94.7386 117.016 93.8409 117.027 91.8864C117.027 90.1818 118.379 88.8523 120.584 88.5227L120.572 95.2386ZM142.928 85.7273H139.507L133.7 89.5227V92.8864L139.268 89.25H139.405V109H142.928V85.7273ZM157.325 109.386C162.7 109.386 165.848 105 165.848 97.375C165.848 89.8068 162.655 85.4091 157.325 85.4091C151.984 85.4091 148.803 89.7955 148.791 97.375C148.791 104.989 151.939 109.375 157.325 109.386ZM157.325 106.352C154.178 106.352 152.28 103.193 152.28 97.375C152.291 91.5795 154.189 88.3864 157.325 88.3864C160.45 88.3864 162.359 91.5795 162.359 97.375C162.359 103.193 160.462 106.352 157.325 106.352ZM177.982 109.386C183.357 109.386 186.504 105 186.504 97.375C186.504 89.8068 183.311 85.4091 177.982 85.4091C172.641 85.4091 169.459 89.7955 169.447 97.375C169.447 104.989 172.595 109.375 177.982 109.386ZM177.982 106.352C174.834 106.352 172.936 103.193 172.936 97.375C172.947 91.5795 174.845 88.3864 177.982 88.3864C181.107 88.3864 183.016 91.5795 183.016 97.375C183.016 103.193 181.118 106.352 177.982 106.352ZM194.126 105.818H190.854L190.74 107.091C190.479 110.17 189.751 113.273 189.445 114.682H191.854C192.399 113.193 193.604 109.784 193.956 107.057L194.126 105.818ZM206.107 109.386C211.482 109.386 214.629 105 214.629 97.375C214.629 89.8068 211.436 85.4091 206.107 85.4091C200.766 85.4091 197.584 89.7955 197.572 97.375C197.572 104.989 200.72 109.375 206.107 109.386ZM206.107 106.352C202.959 106.352 201.061 103.193 201.061 97.375C201.072 91.5795 202.97 88.3864 206.107 88.3864C209.232 88.3864 211.141 91.5795 211.141 97.375C211.141 103.193 209.243 106.352 206.107 106.352ZM226.763 109.386C232.138 109.386 235.286 105 235.286 97.375C235.286 89.8068 232.092 85.4091 226.763 85.4091C221.422 85.4091 218.24 89.7955 218.229 97.375C218.229 104.989 221.376 109.375 226.763 109.386ZM226.763 106.352C223.615 106.352 221.717 103.193 221.717 97.375C221.729 91.5795 223.626 88.3864 226.763 88.3864C229.888 88.3864 231.797 91.5795 231.797 97.375C231.797 103.193 229.899 106.352 226.763 106.352ZM247.419 109.386C252.794 109.386 255.942 105 255.942 97.375C255.942 89.8068 252.749 85.4091 247.419 85.4091C242.078 85.4091 238.896 89.7955 238.885 97.375C238.885 104.989 242.033 109.375 247.419 109.386ZM247.419 106.352C244.271 106.352 242.374 103.193 242.374 97.375C242.385 91.5795 244.283 88.3864 247.419 88.3864C250.544 88.3864 252.453 91.5795 252.453 97.375C252.453 103.193 250.555 106.352 247.419 106.352Z"/><defs><filter id="filter0_d" width="369" height="207" x="0" y="0" color-interpolation-filters="sRGB" filterUnits="userSpaceOnUse"><feFlood flood-opacity="0" result="BackgroundImageFix"/><feColorMatrix in="SourceAlpha" type="matrix" values="0 0 0 0 0 0 0 0 0 0 0 0 0 0 0 0 0 0 127 0"/><feOffset dy="7"/><feGaussianBlur stdDeviation="32"/><feColorMatrix type="matrix" values="0 0 0 0 0 0 0 0 0 0 0 0 0 0 0 0 0 0 0.12 0"/><feBlend in2="BackgroundImageFix" mode="normal" result="effect1_dropShadow"/><feBlend in="SourceGraphic" in2="effect1_dropShadow" mode="normal" result="shape"/></filter></defs></svg>