<svg width="1198" height="471" viewBox="0 0 1198 471" fill="none" xmlns="http://www.w3.org/2000/svg">
<rect x="87" y="386.342" width="51.0784" height="84.6505" fill="#4FC2A0" fill-opacity="0.68"/>
<rect x="139.971" y="363.255" width="51.0784" height="107.737" fill="#4FC2A0" fill-opacity="0.68"/>
<rect x="192.941" y="335.038" width="51.0784" height="135.954" fill="#4FC2A0" fill-opacity="0.68"/>
<rect x="245.913" y="308.104" width="51.0784" height="162.888" fill="#4FC2A0" fill-opacity="0.68"/>
<rect x="298.884" y="335.038" width="51.0784" height="135.954" fill="#4FC2A0" fill-opacity="0.68"/>
<rect x="351.854" y="267.833" width="51.0784" height="203.159" fill="#4FC2A0" fill-opacity="0.68"/>
<rect x="404.826" y="296.561" width="51.0784" height="174.431" fill="#4FC2A0" fill-opacity="0.68"/>
<rect x="457.797" y="324.777" width="51.0784" height="146.215" fill="#4FC2A0" fill-opacity="0.68"/>
<rect x="510.768" y="229.866" width="51.0784" height="241.126" fill="#4FC2A0" fill-opacity="0.68"/>
<rect x="563.738" y="217.04" width="51.0784" height="253.952" fill="#4FC2A0" fill-opacity="0.68"/>
<rect x="616.71" y="241.41" width="51.0784" height="229.583" fill="#4FC2A0" fill-opacity="0.68"/>
<rect x="669.68" y="206.78" width="51.0784" height="264.212" fill="#4FC2A0" fill-opacity="0.68"/>
<rect x="722.651" y="172.15" width="51.0784" height="298.842" fill="#4FC2A0" fill-opacity="0.68"/>
<rect x="775.623" y="152.488" width="51.0784" height="318.504" fill="#4FC2A0" fill-opacity="0.68"/>
<rect x="828.594" y="236.569" width="51.0784" height="234.423" fill="#4FC2A0" fill-opacity="0.68"/>
<rect x="881.564" y="217.04" width="51.0784" height="253.952" fill="#4FC2A0" fill-opacity="0.68"/>
<rect x="934.536" y="164.455" width="51.0784" height="306.538" fill="#4FC2A0" fill-opacity="0.68"/>
<rect x="987.506" y="145.216" width="51.0784" height="325.776" fill="#4FC2A0" fill-opacity="0.68"/>
<rect x="1040.48" y="124.694" width="51.0784" height="346.298" fill="#4FC2A0" fill-opacity="0.68"/>
<rect x="1093.45" y="84.9341" width="51.0784" height="386.058" fill="#4FC2A0" fill-opacity="0.68"/>
<rect x="1146.42" y="58" width="51.0784" height="412.992" fill="#88D6BF"/>
<path d="M950.5 19C955.818 19 958.818 15.6932 958.818 10.2386C958.818 4.81818 955.818 1.54545 950.739 1.54545H945.114V19H950.5ZM947.227 17.125V3.42045H950.602C954.693 3.42045 956.773 6.01136 956.773 10.2386C956.773 14.5 954.693 17.125 950.364 17.125H947.227ZM965.943 19.3068C968.227 19.3068 969.42 18.0795 969.83 17.2273H969.932V19H971.943V10.375C971.943 6.21591 968.773 5.73864 967.102 5.73864C965.125 5.73864 962.875 6.42045 961.852 8.80682L963.761 9.48864C964.205 8.53409 965.253 7.51136 967.17 7.51136C969.02 7.51136 969.932 8.49148 969.932 10.1705V10.2386C969.932 11.2102 968.943 11.125 966.557 11.4318C964.128 11.7472 961.477 12.2841 961.477 15.2841C961.477 17.8409 963.455 19.3068 965.943 19.3068ZM966.25 17.5C964.648 17.5 963.489 16.7841 963.489 15.3864C963.489 13.8523 964.886 13.375 966.455 13.1705C967.307 13.0682 969.591 12.8295 969.932 12.4205V14.2614C969.932 15.8977 968.636 17.5 966.25 17.5ZM975.614 19H977.626V5.90909H975.614V19ZM976.637 3.72727C977.421 3.72727 978.069 3.11364 978.069 2.36364C978.069 1.61364 977.421 1 976.637 1C975.853 1 975.205 1.61364 975.205 2.36364C975.205 3.11364 975.853 3.72727 976.637 3.72727ZM983.321 1.54545H981.31V19H983.321V1.54545ZM988.3 23.875C990.116 23.875 991.403 22.9119 992.153 20.9091L997.727 5.94318L995.528 5.90909L991.914 16.3409H991.778L988.164 5.90909H985.982L990.823 19.0682L990.448 20.0909C989.732 22.0511 988.812 22.2386 987.346 21.8636L986.835 23.6364C987.039 23.7386 987.619 23.875 988.3 23.875ZM1021.25 1.54545H1019.17V15.2841H1019L1009.46 1.54545H1007.41V19H1009.52V5.29545H1009.69L1019.21 19H1021.25V1.54545ZM1030.53 19.2727C1034.07 19.2727 1036.46 16.5795 1036.46 12.5227C1036.46 8.43182 1034.07 5.73864 1030.53 5.73864C1026.98 5.73864 1024.59 8.43182 1024.59 12.5227C1024.59 16.5795 1026.98 19.2727 1030.53 19.2727ZM1030.53 17.4659C1027.83 17.4659 1026.61 15.1477 1026.61 12.5227C1026.61 9.89773 1027.83 7.54545 1030.53 7.54545C1033.22 7.54545 1034.45 9.89773 1034.45 12.5227C1034.45 15.1477 1033.22 17.4659 1030.53 17.4659ZM1045.22 5.90909H1042.43V2.77273H1040.41V5.90909H1038.44V7.61364H1040.41V15.7955C1040.41 18.0795 1042.26 19.1705 1043.96 19.1705C1044.71 19.1705 1045.19 19.0341 1045.46 18.9318L1045.05 17.125C1044.88 17.1591 1044.61 17.2273 1044.16 17.2273C1043.28 17.2273 1042.43 16.9545 1042.43 15.25V7.61364H1045.22V5.90909ZM1048.25 19H1050.26V5.90909H1048.25V19ZM1049.27 3.72727C1050.05 3.72727 1050.7 3.11364 1050.7 2.36364C1050.7 1.61364 1050.05 1 1049.27 1C1048.49 1 1047.84 1.61364 1047.84 2.36364C1047.84 3.11364 1048.49 3.72727 1049.27 3.72727ZM1059.26 19.2727C1062.81 19.2727 1065.19 16.5795 1065.19 12.5227C1065.19 8.43182 1062.81 5.73864 1059.26 5.73864C1055.72 5.73864 1053.33 8.43182 1053.33 12.5227C1053.33 16.5795 1055.72 19.2727 1059.26 19.2727ZM1059.26 17.4659C1056.57 17.4659 1055.34 15.1477 1055.34 12.5227C1055.34 9.89773 1056.57 7.54545 1059.26 7.54545C1061.95 7.54545 1063.18 9.89773 1063.18 12.5227C1063.18 15.1477 1061.95 17.4659 1059.26 17.4659ZM1070.27 11.125C1070.27 8.84091 1071.69 7.54545 1073.62 7.54545C1075.48 7.54545 1076.62 8.7642 1076.62 10.8182V19H1078.63V10.6818C1078.63 7.34091 1076.85 5.73864 1074.19 5.73864C1072.22 5.73864 1070.99 6.625 1070.38 7.95455H1070.21V5.90909H1068.26V19H1070.27V11.125ZM1086.15 19.3068C1088.44 19.3068 1089.63 18.0795 1090.04 17.2273H1090.14V19H1092.15V10.375C1092.15 6.21591 1088.98 5.73864 1087.31 5.73864C1085.34 5.73864 1083.09 6.42045 1082.06 8.80682L1083.97 9.48864C1084.42 8.53409 1085.46 7.51136 1087.38 7.51136C1089.23 7.51136 1090.14 8.49148 1090.14 10.1705V10.2386C1090.14 11.2102 1089.15 11.125 1086.77 11.4318C1084.34 11.7472 1081.69 12.2841 1081.69 15.2841C1081.69 17.8409 1083.67 19.3068 1086.15 19.3068ZM1086.46 17.5C1084.86 17.5 1083.7 16.7841 1083.7 15.3864C1083.7 13.8523 1085.1 13.375 1086.67 13.1705C1087.52 13.0682 1089.8 12.8295 1090.14 12.4205V14.2614C1090.14 15.8977 1088.85 17.5 1086.46 17.5ZM1097.84 1.54545H1095.83V19H1097.84V1.54545ZM1109.26 1.54545H1107.04L1113.45 19H1115.63L1122.04 1.54545H1119.83L1114.65 16.2386H1114.44L1109.26 1.54545ZM1128.59 19.2727C1132.13 19.2727 1134.52 16.5795 1134.52 12.5227C1134.52 8.43182 1132.13 5.73864 1128.59 5.73864C1125.04 5.73864 1122.66 8.43182 1122.66 12.5227C1122.66 16.5795 1125.04 19.2727 1128.59 19.2727ZM1128.59 17.4659C1125.9 17.4659 1124.67 15.1477 1124.67 12.5227C1124.67 9.89773 1125.9 7.54545 1128.59 7.54545C1131.28 7.54545 1132.51 9.89773 1132.51 12.5227C1132.51 15.1477 1131.28 17.4659 1128.59 17.4659ZM1139.6 1.54545H1137.59V19H1139.6V1.54545ZM1151.54 13.6477C1151.54 16.1023 1149.66 17.2273 1148.16 17.2273C1146.49 17.2273 1145.3 16 1145.3 14.0909V5.90909H1143.29V14.2273C1143.29 17.5682 1145.06 19.1705 1147.51 19.1705C1149.49 19.1705 1150.79 18.1136 1151.4 16.7841H1151.54V19H1153.55V5.90909H1151.54V13.6477ZM1157.23 19H1159.24V10.8182C1159.24 8.90057 1160.64 7.54545 1162.21 7.54545C1163.73 7.54545 1164.8 8.54261 1164.8 10.0341V19H1166.85V10.4773C1166.85 8.78977 1167.9 7.54545 1169.74 7.54545C1171.17 7.54545 1172.4 8.30398 1172.4 10.2386V19H1174.41V10.2386C1174.41 7.16193 1172.76 5.73864 1170.42 5.73864C1168.55 5.73864 1167.18 6.59943 1166.5 7.95455H1166.37C1165.72 6.55682 1164.58 5.73864 1162.86 5.73864C1161.15 5.73864 1159.89 6.55682 1159.35 7.95455H1159.17V5.90909H1157.23V19ZM1183.58 19.2727C1186.24 19.2727 1188.18 17.9432 1188.8 15.9659L1186.85 15.4205C1186.34 16.7841 1185.16 17.4659 1183.58 17.4659C1181.22 17.4659 1179.59 15.9403 1179.5 13.1364H1189V12.2841C1189 7.40909 1186.1 5.73864 1183.38 5.73864C1179.83 5.73864 1177.48 8.53409 1177.48 12.5568C1177.48 16.5795 1179.8 19.2727 1183.58 19.2727ZM1179.5 11.3977C1179.63 9.3608 1181.07 7.54545 1183.38 7.54545C1185.56 7.54545 1186.95 9.18182 1186.95 11.3977H1179.5Z" fill="#828282"/>
<path d="M5.21591 394.636H6.2642V393.211C8.94886 393.026 10.4574 391.44 10.4574 389.446C10.4574 386.991 8.13068 386.199 6.77557 385.841L6.2642 385.7V381.156C7.61932 381.29 8.60369 382.018 8.74432 383.182H10.2784C10.2145 381.315 8.57812 379.896 6.2642 379.743V378.273H5.21591V379.762C3.02344 379.986 1.38068 381.379 1.38068 383.386C1.38068 385.151 2.65909 386.199 4.70455 386.787L5.21591 386.934V391.773C3.87358 391.632 2.77415 390.942 2.65909 389.625H1.02273C1.16974 391.638 2.70384 393.045 5.21591 393.211V394.636ZM6.2642 391.773V387.234L6.31534 387.247C7.69602 387.631 8.9233 388.116 8.9233 389.42C8.9233 390.705 7.81108 391.6 6.2642 391.773ZM5.21591 385.419C4.24432 385.144 2.91477 384.607 2.91477 383.31C2.91477 382.204 3.80966 381.36 5.21591 381.175V385.419ZM17.4359 379.909H15.8507L12.5779 382.082V383.693L15.774 381.571H15.8507V393H17.4359V379.909ZM21.2264 393H22.7349V386.864C22.7349 385.425 23.7832 384.409 24.9593 384.409C26.1035 384.409 26.9025 385.157 26.9025 386.276V393H28.4366V386.608C28.4366 385.342 29.2292 384.409 30.6099 384.409C31.6838 384.409 32.6042 384.978 32.6042 386.429V393H34.1127V386.429C34.1127 384.121 32.8727 383.054 31.1213 383.054C29.715 383.054 28.6859 383.7 28.1809 384.716H28.0787C27.5929 383.668 26.7363 383.054 25.4451 383.054C24.1667 383.054 23.2207 383.668 22.8116 384.716H22.6838V383.182H21.2264V393ZM36.8709 393H38.3794V386.864C38.3794 385.425 39.4277 384.409 40.6039 384.409C41.748 384.409 42.5471 385.157 42.5471 386.276V393H44.0811V386.608C44.0811 385.342 44.8738 384.409 46.2544 384.409C47.3283 384.409 48.2488 384.978 48.2488 386.429V393H49.7573V386.429C49.7573 384.121 48.5172 383.054 46.7658 383.054C45.3596 383.054 44.3304 383.7 43.8255 384.716H43.7232C43.2374 383.668 42.3809 383.054 41.0897 383.054C39.8113 383.054 38.8652 383.668 38.4561 384.716H38.3283V383.182H36.8709V393Z" fill="#828282"/>
<path d="M5.21591 276.636H6.2642V275.211C8.94886 275.026 10.4574 273.44 10.4574 271.446C10.4574 268.991 8.13068 268.199 6.77557 267.841L6.2642 267.7V263.156C7.61932 263.29 8.60369 264.018 8.74432 265.182H10.2784C10.2145 263.315 8.57812 261.896 6.2642 261.743V260.273H5.21591V261.762C3.02344 261.986 1.38068 263.379 1.38068 265.386C1.38068 267.151 2.65909 268.199 4.70455 268.787L5.21591 268.934V273.773C3.87358 273.632 2.77415 272.942 2.65909 271.625H1.02273C1.16974 273.638 2.70384 275.045 5.21591 275.211V276.636ZM6.2642 273.773V269.234L6.31534 269.247C7.69602 269.631 8.9233 270.116 8.9233 271.42C8.9233 272.705 7.81108 273.6 6.2642 273.773ZM5.21591 267.419C4.24432 267.144 2.91477 266.607 2.91477 265.31C2.91477 264.204 3.80966 263.36 5.21591 263.175V267.419ZM12.8336 275H21.0922V273.594H15.0069V273.491L17.9473 270.347C20.1973 267.937 20.862 266.812 20.862 265.361C20.862 263.341 19.2257 261.73 16.9245 261.73C14.6298 261.73 12.8848 263.29 12.8848 265.591H14.3933C14.3933 264.102 15.3585 263.111 16.8734 263.111C18.2924 263.111 19.3791 263.98 19.3791 265.361C19.3791 266.569 18.6696 267.464 17.1547 269.119L12.8336 273.849V275ZM23.7576 275H25.2662V268.864C25.2662 267.425 26.3145 266.409 27.4906 266.409C28.6348 266.409 29.4338 267.157 29.4338 268.276V275H30.9679V268.608C30.9679 267.342 31.7605 266.409 33.1412 266.409C34.215 266.409 35.1355 266.978 35.1355 268.429V275H36.644V268.429C36.644 266.121 35.4039 265.054 33.6525 265.054C32.2463 265.054 31.2172 265.7 30.7122 266.716H30.6099C30.1241 265.668 29.2676 265.054 27.9764 265.054C26.698 265.054 25.752 265.668 25.3429 266.716H25.215V265.182H23.7576V275ZM39.4022 275H40.9107V268.864C40.9107 267.425 41.959 266.409 43.1351 266.409C44.2793 266.409 45.0783 267.157 45.0783 268.276V275H46.6124V268.608C46.6124 267.342 47.405 266.409 48.7857 266.409C49.8596 266.409 50.78 266.978 50.78 268.429V275H52.2885V268.429C52.2885 266.121 51.0485 265.054 49.2971 265.054C47.8908 265.054 46.8617 265.7 46.3567 266.716H46.2544C45.7686 265.668 44.9121 265.054 43.6209 265.054C42.3425 265.054 41.3965 265.668 40.9874 266.716H40.8596V265.182H39.4022V275Z" fill="#828282"/>
<path d="M5.21591 173.636H6.2642V172.211C8.94886 172.026 10.4574 170.44 10.4574 168.446C10.4574 165.991 8.13068 165.199 6.77557 164.841L6.2642 164.7V160.156C7.61932 160.29 8.60369 161.018 8.74432 162.182H10.2784C10.2145 160.315 8.57812 158.896 6.2642 158.743V157.273H5.21591V158.762C3.02344 158.986 1.38068 160.379 1.38068 162.386C1.38068 164.151 2.65909 165.199 4.70455 165.787L5.21591 165.934V170.773C3.87358 170.632 2.77415 169.942 2.65909 168.625H1.02273C1.16974 170.638 2.70384 172.045 5.21591 172.211V173.636ZM6.2642 170.773V166.234L6.31534 166.247C7.69602 166.631 8.9233 167.116 8.9233 168.42C8.9233 169.705 7.81108 170.6 6.2642 170.773ZM5.21591 164.419C4.24432 164.144 2.91477 163.607 2.91477 162.31C2.91477 161.204 3.80966 160.36 5.21591 160.175V164.419ZM12.8336 172H21.0922V170.594H15.0069V170.491L17.9473 167.347C20.1973 164.937 20.862 163.812 20.862 162.361C20.862 160.341 19.2257 158.73 16.9245 158.73C14.6298 158.73 12.8848 160.29 12.8848 162.591H14.3933C14.3933 161.102 15.3585 160.111 16.8734 160.111C18.2924 160.111 19.3791 160.98 19.3791 162.361C19.3791 163.569 18.6696 164.464 17.1547 166.119L12.8336 170.849V172ZM23.7576 172H25.2662V165.864C25.2662 164.425 26.3145 163.409 27.4906 163.409C28.6348 163.409 29.4338 164.157 29.4338 165.276V172H30.9679V165.608C30.9679 164.342 31.7605 163.409 33.1412 163.409C34.215 163.409 35.1355 163.978 35.1355 165.429V172H36.644V165.429C36.644 163.121 35.4039 162.054 33.6525 162.054C32.2463 162.054 31.2172 162.7 30.7122 163.716H30.6099C30.1241 162.668 29.2676 162.054 27.9764 162.054C26.698 162.054 25.752 162.668 25.3429 163.716H25.215V162.182H23.7576V172ZM39.4022 172H40.9107V165.864C40.9107 164.425 41.959 163.409 43.1351 163.409C44.2793 163.409 45.0783 164.157 45.0783 165.276V172H46.6124V165.608C46.6124 164.342 47.405 163.409 48.7857 163.409C49.8596 163.409 50.78 163.978 50.78 165.429V172H52.2885V165.429C52.2885 163.121 51.0485 162.054 49.2971 162.054C47.8908 162.054 46.8617 162.7 46.3567 163.716H46.2544C45.7686 162.668 44.9121 162.054 43.6209 162.054C42.3425 162.054 41.3965 162.668 40.9874 163.716H40.8596V162.182H39.4022V172Z" fill="#828282"/>
<path d="M5.21591 70.6364H6.2642V69.2109C8.94886 69.0256 10.4574 67.4403 10.4574 65.446C10.4574 62.9915 8.13068 62.1989 6.77557 61.8409L6.2642 61.7003V57.1555C7.61932 57.2898 8.60369 58.0185 8.74432 59.1818H10.2784C10.2145 57.3153 8.57812 55.8963 6.2642 55.7429V54.2727H5.21591V55.7621C3.02344 55.9858 1.38068 57.3793 1.38068 59.3864C1.38068 61.1506 2.65909 62.1989 4.70455 62.7869L5.21591 62.9339V67.7727C3.87358 67.6321 2.77415 66.9418 2.65909 65.625H1.02273C1.16974 67.6385 2.70384 69.0447 5.21591 69.2109V70.6364ZM6.2642 67.7727V63.2344L6.31534 63.2472C7.69602 63.6307 8.9233 64.1165 8.9233 65.4205C8.9233 66.7053 7.81108 67.6001 6.2642 67.7727ZM5.21591 61.419C4.24432 61.1442 2.91477 60.6072 2.91477 59.3097C2.91477 58.2038 3.80966 57.3601 5.21591 57.1747V61.419ZM12.5268 66.3153H18.6887V69H20.1973V66.3153H21.987V64.9091H20.1973V55.9091H18.2797L12.5268 65.0114V66.3153ZM18.6887 64.9091H14.2399V64.8068L18.5865 57.929H18.6887V64.9091ZM24.408 69H25.9165V62.8636C25.9165 61.4254 26.9648 60.4091 28.141 60.4091C29.2852 60.4091 30.0842 61.157 30.0842 62.2756V69H31.6183V62.608C31.6183 61.3423 32.4109 60.4091 33.7915 60.4091C34.8654 60.4091 35.7859 60.978 35.7859 62.429V69H37.2944V62.429C37.2944 60.1214 36.0543 59.054 34.3029 59.054C32.8967 59.054 31.8675 59.6996 31.3626 60.7159H31.2603C30.7745 59.6676 29.918 59.054 28.6268 59.054C27.3484 59.054 26.4023 59.6676 25.9933 60.7159H25.8654V59.1818H24.408V69ZM40.0526 69H41.5611V62.8636C41.5611 61.4254 42.6094 60.4091 43.7855 60.4091C44.9297 60.4091 45.7287 61.157 45.7287 62.2756V69H47.2628V62.608C47.2628 61.3423 48.0554 60.4091 49.4361 60.4091C50.5099 60.4091 51.4304 60.978 51.4304 62.429V69H52.9389V62.429C52.9389 60.1214 51.6989 59.054 49.9474 59.054C48.5412 59.054 47.5121 59.6996 47.0071 60.7159H46.9048C46.419 59.6676 45.5625 59.054 44.2713 59.054C42.9929 59.054 42.0469 59.6676 41.6378 60.7159H41.5099V59.1818H40.0526V69Z" fill="#828282"/>
</svg>
