<svg xmlns="http://www.w3.org/2000/svg" width="103" height="125" fill="none" viewBox="0 0 103 125"><path fill="#fff" stroke="#4DADF3" stroke-linecap="round" stroke-linejoin="round" stroke-miterlimit="10" stroke-width=".874" d="M83.8922 61.4489C81.5336 61.2742 79.6555 61.0995 77.9521 61.0558C75.5936 60.9684 73.5408 61.0995 70.8765 61.6673L68.2559 49.6124C69.9156 49.263 72.5362 49.001 75.3315 48.9573C77.6027 48.9573 79.9613 49.0883 81.9704 49.4814C89.7012 51.0538 90.7058 61.973 83.8922 61.4489Z"/><path fill="#4DADF3" d="M76.0304 49.0447L78.651 61.1432C76.2924 61.0558 73.5408 61.1432 70.8765 61.711L68.2559 49.6562C69.9156 49.2631 73.235 49.0447 76.0304 49.0447Z" opacity=".2"/><path stroke="#4DADF3" stroke-linecap="round" stroke-linejoin="round" stroke-width=".874" d="M48.907 99.1421C49.0817 99.6225 49.3001 100.059 49.6058 100.496"/><path stroke="#4DADF3" stroke-linecap="round" stroke-linejoin="round" stroke-width=".874" d="M51.5713 102.68C51.9644 102.986 52.4011 103.248 52.8379 103.51"/><path fill="#fff" stroke="#4DADF3" stroke-linecap="round" stroke-linejoin="round" stroke-miterlimit="10" stroke-width=".874" d="M72.973 65.7292L25.8455 80.1426L20.5606 55.8146C19.9055 52.7572 21.7836 49.5251 24.7973 48.6079L61.0928 37.5139C64.1065 36.5967 67.0329 38.3438 67.7317 41.4012L72.973 65.7292Z"/><path fill="#fff" stroke="#4DADF3" stroke-linecap="round" stroke-linejoin="round" stroke-miterlimit="10" stroke-width=".874" d="M28.6845 76.8232L23.0939 59.2651C24.1858 59.8765 25.4524 60.0512 26.6317 59.7018L65.7226 48.3458C66.2467 48.2148 66.7708 48.5205 66.9018 49.0446L70.1339 64.2879L28.6845 76.8232Z"/><path fill="#4DADF3" d="M69.7409 50.3113L28.8593 58.7409C26.0639 59.3087 23.1376 58.2605 21.3468 56.0329L20.2986 54.7226L22.6571 65.0304L71.3132 58.2605L69.7409 50.3113Z" opacity=".2"/><path fill="#fff" stroke="#4DADF3" stroke-linecap="round" stroke-linejoin="round" stroke-miterlimit="10" stroke-width=".874" d="M20.3859 54.941L28.0731 90.363C28.7719 93.6825 32.0477 95.91 35.3671 95.3859L76.205 89.0527C79.5245 88.5286 81.621 85.4275 80.9222 82.1517L75.943 59.0903C75.2442 55.7709 71.9684 53.5433 68.6489 54.0675L27.811 60.4006C24.4916 60.9247 21.2158 58.6535 20.517 55.3778L20.3859 54.941Z"/><path fill="#4DADF3" d="M29.0776 60.1823L36.6337 95.1675L35.3234 95.3859C32.004 95.91 28.7282 93.6388 28.0294 90.363L20.4733 55.3778C21.1721 58.6973 24.4479 60.9248 27.7673 60.4007L29.0776 60.1823Z" opacity=".2"/><path stroke="#4DADF3" stroke-linecap="round" stroke-linejoin="round" stroke-width=".874" d="M34.5373 47.5159C34.9741 47.7343 35.4545 47.909 35.9786 48.0837"/><path stroke="#4DADF3" stroke-dasharray="2.62 2.62" stroke-linecap="round" stroke-linejoin="round" stroke-width=".874" d="M38.5119 48.6077C39.7349 48.695 41.0015 48.6514 42.4428 48.433"/><path stroke="#4DADF3" stroke-linecap="round" stroke-linejoin="round" stroke-width=".874" d="M43.7095 48.1709C44.1899 48.0399 44.6704 47.9089 45.1945 47.7778"/><path stroke="#32D1F5" stroke-linecap="round" stroke-linejoin="round" stroke-width=".874" d="M28.0294 37.5576C28.0294 38.0817 28.0294 38.6059 28.1167 39.0863"/><path stroke="#32D1F5" stroke-dasharray="2.1 2.1" stroke-linecap="round" stroke-linejoin="round" stroke-width=".874" d="M28.6408 41.1391C29.0339 42.231 29.6017 43.1482 30.1695 43.8907"/><path stroke="#32D1F5" stroke-linecap="round" stroke-linejoin="round" stroke-width=".874" d="M30.8247 44.6769C31.3052 45.201 31.7419 45.5504 31.9166 45.7251"/><path stroke="#4DADF3" stroke-linecap="round" stroke-linejoin="round" stroke-width=".874" d="M51.0472 38.6932C51.0472 38.1691 51.0472 37.6449 51.0035 37.1645"/><path stroke="#4DADF3" stroke-dasharray="2.84 2.84" stroke-linecap="round" stroke-linejoin="round" stroke-width=".874" d="M50.5667 34.3691C47.9024 23.0131 34.3626 23.4935 29.7765 30.9623"/><path stroke="#4DADF3" stroke-linecap="round" stroke-linejoin="round" stroke-width=".874" d="M29.1213 32.1853C28.9029 32.6657 28.7719 33.1462 28.6409 33.6266"/><path stroke="#4DADF3" stroke-linecap="round" stroke-linejoin="round" stroke-width=".874" d="M45.2818 52.0583C45.6312 51.6652 45.937 51.2721 46.2864 50.879"/><path stroke="#4DADF3" stroke-dasharray="2.45 2.45" stroke-linecap="round" stroke-linejoin="round" stroke-width=".874" d="M47.7277 48.9136C48.4266 47.8654 49.038 46.8171 49.5185 45.6815"/><path stroke="#4DADF3" stroke-linecap="round" stroke-linejoin="round" stroke-width=".874" d="M49.9553 44.5895C50.13 44.1091 50.3047 43.6286 50.4357 43.1482"/><path stroke="#4DADF3" stroke-linecap="round" stroke-linejoin="round" stroke-width=".874" d="M66.1158 5.71711C65.8974 5.36769 65.6353 4.88725 65.3296 4.4068"/><path stroke="#4DADF3" stroke-linecap="round" stroke-linejoin="round" stroke-width=".874" d="M63.8445 2.22295C63.5388 1.78618 63.233 1.39309 62.9273 1"/><path stroke="#32D1F5" stroke-linecap="round" stroke-linejoin="round" stroke-width=".874" d="M66.9019 35.5921C67.2077 35.199 67.5134 34.7622 67.7755 34.3691"/><path stroke="#32D1F5" stroke-dasharray="2.77 2.77" stroke-linecap="round" stroke-linejoin="round" stroke-width=".874" d="M69.1731 31.9232C71.8811 26.2889 71.9684 19.2132 69.0421 11.7008"/><path stroke="#32D1F5" stroke-linecap="round" stroke-linejoin="round" stroke-width=".874" d="M68.4742 10.4342C68.2559 9.95372 68.0812 9.51695 67.8191 9.0365"/><path stroke="#4DADF3" stroke-linecap="round" stroke-linejoin="round" stroke-width=".874" d="M52.7068 45.2448C53.1873 45.0701 53.6677 44.8517 54.1482 44.677"/><path stroke="#4DADF3" stroke-dasharray="2.92 2.92" stroke-linecap="round" stroke-linejoin="round" stroke-width=".874" d="M56.7689 43.4977C58.1228 42.7989 59.3895 42.1 60.5688 41.3138"/><path stroke="#4DADF3" stroke-linecap="round" stroke-linejoin="round" stroke-width=".874" d="M61.748 40.484C62.1848 40.1783 62.5778 39.8725 62.9709 39.5668"/><path fill="#fff" stroke="#4DADF3" stroke-linecap="round" stroke-linejoin="round" stroke-miterlimit="10" stroke-width=".874" d="M84.1436 58.4131C85.2054 57.7917 85.4538 56.2416 84.6984 54.9508C83.9429 53.66 82.4698 53.1173 81.408 53.7386C80.3462 54.36 80.0978 55.9102 80.8532 57.201C81.6086 58.4919 83.0818 59.0345 84.1436 58.4131Z"/><path fill="#4DADF3" d="M67.6007 71.7566C65.7226 75.7749 71.357 78.3519 73.4971 74.4646C75.7683 70.2716 69.5225 67.52 67.6007 71.7566Z" opacity=".3"/><path fill="#fff" stroke="#4DADF3" stroke-linecap="round" stroke-linejoin="round" stroke-miterlimit="10" stroke-width=".874" d="M68.7363 70.9268C66.9456 73.7222 71.1822 76.5612 73.104 73.9842C75.3315 70.9705 70.7018 67.9568 68.7363 70.9268Z"/></svg>