<svg width="139" height="120" viewBox="0 0 139 120" fill="none" xmlns="http://www.w3.org/2000/svg">
<path d="M44.8541 23.7332C44.8541 21.3148 46.7888 19.38 49.2072 19.38H112.462C117.245 19.38 121.169 23.2495 121.169 28.0863V62.2129H44.8541V23.7332Z" fill="#E2F1FF" stroke="#4DADF3" stroke-width="1.07485" stroke-miterlimit="10" stroke-linecap="round" stroke-linejoin="round"/>
<path opacity="0.2" d="M121.169 33.0304V66.5121C121.169 71.2952 117.299 75.2184 112.462 75.2184H49.7984C47.0575 75.2184 44.8541 73.015 44.8541 70.2741V20.0247C44.8541 22.4431 46.7888 24.3779 49.2072 24.3779H112.462C117.245 24.3779 121.169 28.2474 121.169 33.0304Z" fill="#4DADF3"/>
<path d="M96.6082 3.68717L52.4855 13.952C51.3031 14.2207 50.6045 15.4031 50.8732 16.5317L56.9461 42.5431C57.2148 43.7255 58.3972 44.4241 59.5258 44.1554L103.648 33.8905C104.831 33.6218 105.529 32.4395 105.261 31.3109L99.1878 5.29945C98.9191 4.11711 97.7905 3.41846 96.6082 3.68717Z" fill="#E2F1FF" stroke="#4DADF3" stroke-width="1.07485" stroke-miterlimit="10" stroke-linecap="round" stroke-linejoin="round"/>
<path d="M103.111 19.8636C107.919 19.8636 111.817 15.9656 111.817 11.1572C111.817 6.34888 107.919 2.45093 103.111 2.45093C98.3027 2.45093 94.4048 6.34888 94.4048 11.1572C94.4048 15.9656 98.3027 19.8636 103.111 19.8636Z" fill="#E2F1FF" stroke="#4DADF3" stroke-width="1.07485" stroke-miterlimit="10" stroke-linecap="round" stroke-linejoin="round"/>
<path d="M110.42 40.4469L66.0287 45.4988C64.6851 45.66 63.4491 44.6926 63.2878 43.2953L60.332 17.3913C60.1708 16.0478 61.1381 14.8117 62.5354 14.6505L106.927 9.59865C108.27 9.43743 109.506 10.4048 109.668 11.8021L112.624 37.7061C112.731 39.0496 111.764 40.2857 110.42 40.4469Z" fill="white" stroke="#4DADF3" stroke-width="1.07485" stroke-miterlimit="10" stroke-linecap="round" stroke-linejoin="round"/>
<path d="M68.2859 23.1956L66.405 23.4106C65.8138 23.4643 65.2764 23.0344 65.2226 22.4432L65.0076 20.5622C64.9539 19.971 65.3838 19.4336 65.975 19.3799L67.856 19.1649C68.4472 19.1112 68.9846 19.5411 69.0383 20.1323L69.2533 22.0133C69.307 22.6044 68.8771 23.1419 68.2859 23.1956Z" fill="white" stroke="#4DADF3" stroke-width="1.07485" stroke-miterlimit="10" stroke-linecap="round" stroke-linejoin="round"/>
<path d="M71.7255 22.8731C71.9942 22.2282 72.1017 21.5296 72.048 20.7772C71.9942 20.0785 71.7793 19.4873 71.4031 18.9499" stroke="#4DADF3" stroke-width="1.07485" stroke-miterlimit="10" stroke-linecap="round" stroke-linejoin="round"/>
<path d="M73.3915 24.4317C74.0364 23.3031 74.3589 21.9596 74.1976 20.5623C74.0901 19.3799 73.6065 18.2513 72.9616 17.3377" stroke="#4DADF3" stroke-width="1.07485" stroke-miterlimit="10" stroke-linecap="round" stroke-linejoin="round"/>
<path opacity="0.2" d="M102.412 12.6621C102.412 18.8425 97.4144 23.8406 91.234 23.8406C85.0536 23.8406 80.0555 18.8425 80.0555 12.6621L102.144 10.1362C102.359 10.9424 102.412 11.8023 102.412 12.6621Z" fill="#4DADF3"/>
<path d="M91.8788 20.6698C97.3105 20.6698 101.714 16.2666 101.714 10.8349C101.714 5.40326 97.3105 1 91.8788 1C86.4472 1 82.0439 5.40326 82.0439 10.8349C82.0439 16.2666 86.4472 20.6698 91.8788 20.6698Z" fill="white" stroke="#4DADF3" stroke-width="1.07485" stroke-miterlimit="10" stroke-linecap="round" stroke-linejoin="round"/>
<path d="M121.169 36.7388V70.2742C121.169 75.0573 117.299 78.9805 112.462 78.9805H49.7984C47.0575 78.9805 44.8541 76.777 44.8541 74.0362V23.7868C44.8541 26.2052 46.7888 28.1399 49.2072 28.1399H112.462C117.245 28.0862 121.169 31.9557 121.169 36.7388Z" fill="white" stroke="#4DADF3" stroke-width="1.07485" stroke-miterlimit="10" stroke-linecap="round" stroke-linejoin="round"/>
<path opacity="0.2" d="M121.168 43.6716V66.0286C120.524 66.351 119.825 66.566 119.019 66.566H107.195C102.842 66.566 99.2952 63.019 99.2952 58.6659C99.2952 56.4624 100.155 54.5277 101.606 53.0766C103.057 51.6256 104.992 50.7657 107.195 50.7657H119.717C120.47 50.7657 121.007 50.1745 121.007 49.4221V43.6179C121.061 43.6717 121.115 43.6716 121.168 43.6716Z" fill="#4DADF3"/>
<path d="M123.641 44.3164V59.0957C123.641 59.5793 123.533 60.1168 123.372 60.5467C122.942 61.7291 122.028 62.6427 120.9 63.1264C120.416 63.3413 119.879 63.4488 119.287 63.4488H108.109C103.971 63.4488 100.639 60.1168 100.639 55.9786C100.639 53.9364 101.445 52.0554 102.842 50.7118C104.186 49.3682 106.067 48.5084 108.109 48.5084H119.879C120.309 48.5084 120.631 48.2934 120.846 48.0247C121.007 47.8097 121.115 47.541 121.115 47.2723V41.7905C121.813 41.7905 122.404 42.0593 122.888 42.5429C123.103 42.7579 123.264 42.9729 123.372 43.1878C123.533 43.564 123.641 43.9402 123.641 44.3164Z" fill="white" stroke="#4DADF3" stroke-width="1.07485" stroke-miterlimit="10" stroke-linecap="round" stroke-linejoin="round"/>
<path opacity="0.2" d="M52.2168 44.2628V28.0862H49.2072C46.7888 28.0862 44.8541 26.1515 44.8541 23.7331V73.9825C44.8541 76.7233 47.0575 78.9268 49.7984 78.9268H60.6007C62.6429 75.1648 63.8252 70.8116 63.8252 66.1898C63.879 57.1073 59.2571 49.0458 52.2168 44.2628Z" fill="#4DADF3"/>
<path opacity="0.2" d="M111.221 59.2193C112.611 57.0435 112.076 54.2171 110.025 52.9065C107.975 51.5959 105.185 52.2972 103.794 54.473C102.404 56.6489 102.939 59.4752 104.99 60.7858C107.04 62.0965 109.83 61.3951 111.221 59.2193Z" fill="#4DADF3"/>
<path d="M108.055 60.0093C110.222 60.0093 111.979 58.2528 111.979 56.086C111.979 53.9193 110.222 52.1628 108.055 52.1628C105.889 52.1628 104.132 53.9193 104.132 56.086C104.132 58.2528 105.889 60.0093 108.055 60.0093Z" fill="white" stroke="#4DADF3" stroke-width="1.07485" stroke-miterlimit="10" stroke-linecap="round" stroke-linejoin="round"/>
<path d="M59.257 63.7714C59.257 51.3031 49.1534 41.2532 36.7388 41.2532C24.3243 41.2532 14.2206 51.3568 14.2206 63.7714C14.2206 76.1859 24.3243 86.2895 36.7388 86.2895C49.1534 86.2895 59.257 76.1859 59.257 63.7714Z" fill="white" stroke="#4DADF3" stroke-width="1.07485" stroke-miterlimit="10" stroke-linecap="round" stroke-linejoin="round"/>
<path opacity="0.2" d="M59.257 63.7714C59.257 76.2397 49.1534 86.2895 36.7388 86.2895C24.2705 86.2895 14.2206 76.1859 14.2206 63.7714C14.2206 51.3031 24.3243 41.2532 36.7388 41.2532C39.0497 41.2532 41.3069 41.5757 43.4029 42.2206C42.2743 42.0056 41.092 41.8981 39.9096 41.8981C29.8598 41.8981 21.6909 50.1208 21.6909 60.2781C21.6909 70.4355 29.8598 78.6581 39.9096 78.6581C49.9595 78.6581 58.1284 70.4355 58.1284 60.2781C58.1284 57.9134 57.6984 55.6562 56.8923 53.614C58.3971 56.6236 59.257 60.0631 59.257 63.7714Z" fill="#4DADF3"/>
<path d="M59.1495 65.5985C59.1495 62.5889 49.0996 60.1705 36.6851 60.1705C24.2705 60.1705 14.2206 62.5889 14.2206 65.5985" stroke="#4DADF3" stroke-width="1.07485" stroke-miterlimit="10" stroke-linecap="round" stroke-linejoin="round"/>
<path d="M45.3376 78.9268C47.2186 74.9498 48.3472 69.6293 48.3472 63.7714C48.3472 51.3031 43.1342 41.2532 36.6851 41.2532C30.236 41.2532 25.0229 51.3568 25.0229 63.7714C25.0229 76.2397 30.236 86.2895 36.6851 86.2895C38.4048 86.2895 40.0171 85.5909 41.4682 84.301" stroke="#4DADF3" stroke-width="1.07485" stroke-miterlimit="10" stroke-linecap="round" stroke-linejoin="round"/>
<path d="M36.6851 80.8076V86.2894" stroke="#4DADF3" stroke-width="1.07485" stroke-miterlimit="10" stroke-linecap="round" stroke-linejoin="round"/>
<path d="M36.6851 41.1993V60.2242" stroke="#4DADF3" stroke-width="1.07485" stroke-miterlimit="10" stroke-linecap="round" stroke-linejoin="round"/>
<path d="M36.6851 64.3086C38.466 64.3086 39.9096 62.865 39.9096 61.0841C39.9096 59.3032 38.466 57.8595 36.6851 57.8595C34.9042 57.8595 33.4605 59.3032 33.4605 61.0841C33.4605 62.865 34.9042 64.3086 36.6851 64.3086Z" fill="white" stroke="#4DADF3" stroke-width="1.07485" stroke-miterlimit="10" stroke-linecap="round" stroke-linejoin="round"/>
<path d="M37.8673 60.9767V61.1379M35.5563 60.9767V61.1379V60.9767Z" stroke="#4DADF3" stroke-width="1.07485" stroke-miterlimit="10" stroke-linecap="round" stroke-linejoin="round"/>
<path d="M108.002 56.0323C106.282 63.6638 104.132 73.8212 108.109 87.6868C111.388 99.1877 117.407 99.6714 119.933 97.038C122.566 94.2434 121.545 88.063 112.462 87.2031" stroke="#4DADF3" stroke-width="1.07485" stroke-miterlimit="10" stroke-linecap="round" stroke-linejoin="round"/>
<path d="M104.186 88.3855C104.132 88.3855 68.6621 94.4584 71.2417 61.2992C73.0152 38.6198 99.8328 46.7349 90.3204 65.7598C88.4394 69.5218 84.5162 73.23 81.2379 75.7022" stroke="#4DADF3" stroke-width="1.07485" stroke-miterlimit="10" stroke-linecap="round" stroke-linejoin="round"/>
<path d="M39.6411 68.3931L40.286 71.2953M37.0077 68.9306L37.6526 71.8327L37.0077 68.9306Z" stroke="#4DADF3" stroke-width="1.07485" stroke-miterlimit="10" stroke-linecap="round" stroke-linejoin="round"/>
<path d="M42.9732 74.4124L42.3283 71.9402C41.8984 70.113 35.6105 71.5103 36.0404 73.3376L36.6853 75.8097" fill="white"/>
<path d="M42.9732 74.4124L42.3283 71.9402C41.8984 70.113 35.6105 71.5103 36.0404 73.3376L36.6853 75.8097" stroke="#4DADF3" stroke-width="1.07485" stroke-miterlimit="10" stroke-linecap="round" stroke-linejoin="round"/>
<path d="M42.9732 74.4123C42.5433 72.5851 36.2554 73.9824 36.6853 75.8096C37.1153 77.6369 43.4032 76.2396 42.9732 74.4123Z" fill="white" stroke="#4DADF3" stroke-width="1.07485" stroke-miterlimit="10" stroke-linecap="round" stroke-linejoin="round"/>
<path d="M71.4031 82.5811C55.119 91.7174 43.1882 86.0206 39.9636 75.4333" stroke="#4DADF3" stroke-width="1.07485" stroke-miterlimit="10" stroke-linecap="round" stroke-linejoin="round"/>
<path d="M89.1917 56.731C89.4066 57.8596 89.3529 59.0956 89.0305 60.4929" stroke="#4DADF3" stroke-width="1.07485" stroke-miterlimit="10" stroke-linecap="round" stroke-linejoin="round"/>
<path d="M79.6256 51.7867C82.7964 50.2281 86.6121 51.4105 88.3319 54.4201" stroke="#4DADF3" stroke-width="1.07485" stroke-miterlimit="10" stroke-linecap="round" stroke-linejoin="round"/>
<path d="M77.7445 53.1303C77.852 53.0228 77.9595 52.9691 78.0132 52.8616" stroke="#4DADF3" stroke-width="1.07485" stroke-miterlimit="10" stroke-linecap="round" stroke-linejoin="round"/>
<path d="M80.8079 44.9078C81.9902 44.7466 83.1725 44.7466 84.3011 44.9078" stroke="#4DADF3" stroke-width="1.07485" stroke-miterlimit="10" stroke-linecap="round" stroke-linejoin="round"/>
<path d="M123.533 96.5005C124.339 94.4045 124.232 91.8249 122.727 89.6215" stroke="#4DADF3" stroke-width="1.07485" stroke-miterlimit="10" stroke-linecap="round" stroke-linejoin="round"/>
<path d="M108.055 95.2644C108.647 96.178 109.238 96.9842 109.829 97.6828" stroke="#4DADF3" stroke-width="1.07485" stroke-miterlimit="10" stroke-linecap="round" stroke-linejoin="round"/>
<path d="M29.0536 73.8751C28.7311 72.7465 28.4624 71.5641 28.3012 70.4355" stroke="#4DADF3" stroke-width="1.07485" stroke-miterlimit="10" stroke-linecap="round" stroke-linejoin="round"/>
<path d="M30.0748 76.616C29.9673 76.3473 29.8599 76.0248 29.6986 75.7561" stroke="#4DADF3" stroke-width="1.07485" stroke-miterlimit="10" stroke-linecap="round" stroke-linejoin="round"/>
<path opacity="0.2" d="M61.4606 26.0441H111.119L111.441 28.4625H61.5681L61.4606 26.0441Z" fill="#4DADF3"/>
<path opacity="0.2" d="M123.372 43.2416V60.5467C122.942 61.7291 122.029 62.6427 120.9 63.1264V48.0247C121.061 47.8097 121.169 47.541 121.169 47.2723V41.7905C121.867 41.7905 122.458 42.0593 122.942 42.5429C123.103 42.7579 123.265 42.9729 123.372 43.2416Z" fill="#4DADF3"/>
<path d="M8.09404 50.7656C12.012 50.7656 15.1881 47.5895 15.1881 43.6715C15.1881 39.7536 12.012 36.5775 8.09404 36.5775C4.17611 36.5775 1 39.7536 1 43.6715C1 47.5895 4.17611 50.7656 8.09404 50.7656Z" fill="white" stroke="#4DADF3" stroke-width="1.07485" stroke-miterlimit="10" stroke-linecap="round" stroke-linejoin="round"/>
<path d="M18.8962 39.6946C20.9442 39.6946 22.6044 38.0343 22.6044 35.9863C22.6044 33.9383 20.9442 32.2781 18.8962 32.2781C16.8482 32.2781 15.1879 33.9383 15.1879 35.9863C15.1879 38.0343 16.8482 39.6946 18.8962 39.6946Z" fill="white"/>
<path d="M18.8962 39.6946C20.9442 39.6946 22.6044 38.0343 22.6044 35.9863C22.6044 33.9383 20.9442 32.2781 18.8962 32.2781C16.8482 32.2781 15.1879 33.9383 15.1879 35.9863C15.1879 38.0343 16.8482 39.6946 18.8962 39.6946Z" stroke="white" stroke-width="1.07485" stroke-miterlimit="10" stroke-linecap="round" stroke-linejoin="round"/>
<path d="M137.506 66.9422C137.506 68.8418 135.966 70.3818 134.067 70.3818C132.167 70.3818 130.627 68.8418 130.627 66.9422C130.627 65.0426 132.167 63.5027 134.067 63.5027C135.966 63.5027 137.506 65.0426 137.506 66.9422Z" fill="white" stroke="#4DADF3" stroke-width="0.537426"/>
<path d="M134.067 70.6505C136.115 70.6505 137.775 68.9902 137.775 66.9422C137.775 64.8942 136.115 63.234 134.067 63.234C132.019 63.234 130.359 64.8942 130.359 66.9422C130.359 68.9902 132.019 70.6505 134.067 70.6505Z" stroke="#4DADF3" stroke-width="1.07485" stroke-miterlimit="10" stroke-linecap="round" stroke-linejoin="round"/>
</svg>
