<svg width="280" height="280" viewBox="0 0 280 280" fill="none" xmlns="http://www.w3.org/2000/svg">
<path d="M88.3724 71.0583C88.3724 71.0583 120.214 95.2208 168.62 50.0409C211.61 9.91692 246.712 73.2234 246.958 103.54C247.276 142.812 203.968 174.235 224.985 200.029C246.003 225.823 183.305 268.418 149.514 231.555C107.479 185.699 96.091 222.957 72.1313 222.957C54.9352 222.957 19.6297 180.229 43.4712 148.441C63.5332 121.691 52.5918 112.814 47.2932 103.54C39.6502 90.1651 57.8016 53.8622 88.3724 71.0583Z" fill="#C6EADF"/>
<path d="M230.367 54.5875C230.367 55.182 230.341 55.7676 230.289 56.3476C229.827 61.5877 227.331 66.4385 223.336 69.8609C219.341 73.2833 214.165 75.0052 208.916 74.6578C203.667 74.3104 198.763 71.9212 195.254 68.0022C191.745 64.0831 189.91 58.9457 190.142 53.6903C190.375 48.435 192.656 43.4796 196.497 39.8856C200.338 36.2916 205.434 34.3447 210.694 34.462C215.953 34.5793 220.957 36.7515 224.634 40.5132C228.311 44.2749 230.369 49.3271 230.367 54.5875V54.5875Z" fill="#95D6C2"/>
<path d="M212.784 56.1284C211.486 57.1382 209.671 59.1494 210.219 63.6243C209.611 65.3613 207.447 68.6793 207.447 70.266C207.447 71.8528 204.85 72.142 204.561 71.708C204.273 71.274 204.129 65.7933 202.542 64.7835C200.955 63.7737 201.243 59.1573 201.243 59.1573C201.243 59.1573 201.821 57.4261 199.945 56.2721C198.07 55.118 196.763 52.377 198.428 50.7901C200.089 49.2032 195.617 48.1934 195.04 47.0393C194.795 46.5493 193.854 45.4524 192.856 44.3589C195.015 40.7034 198.269 37.8204 202.158 36.1187C203.633 37.6587 204.908 39.63 204.562 41.7016C204.619 42.7114 209.002 44.2983 206.855 46.4616C204.706 48.6256 201.789 51.6556 206.855 52.6648C211.919 53.6762 214.083 55.1182 212.784 56.1284Z" fill="#4FC2A0"/>
<path d="M224.308 40.1875C223.229 42.4639 220.523 44.2989 218.988 44.2989C217.257 42.4229 213.506 45.0203 213.154 41.9907C212.95 40.225 214.963 37.4839 216.68 35.499C219.542 36.4701 222.149 38.0724 224.308 40.1875Z" fill="#4FC2A0"/>
<path d="M230.289 56.3474C229.86 61.3288 227.586 65.9703 223.913 69.3627C223.247 68.725 222.684 67.9778 222.883 67.3806C223.316 66.0822 225.076 63.3411 224.773 61.61C224.49 59.9943 225.982 55.1068 230.289 56.3474Z" fill="#4FC2A0"/>
<path d="M197.529 156.356C196.885 160.33 195.819 164.225 194.348 167.973C184.766 192.519 159.059 207.896 132.007 203.477C117.072 201.032 103.719 192.756 94.8826 180.47C86.0466 168.183 82.4509 152.891 84.8858 137.954C85.0096 137.196 85.1539 136.432 85.3046 135.689C91.4079 105.828 120.059 85.8753 150.408 90.8325C159.464 92.2965 168.03 95.935 175.371 101.436C177.784 103.237 180.047 105.23 182.139 107.394C188.352 113.785 192.981 121.543 195.653 130.045C198.326 138.548 198.969 147.559 197.529 156.355V156.356Z" fill="#95D6C2"/>
<path d="M194.348 167.973C183.48 174.969 170.646 181.441 156.497 186.792C142.09 192.238 127.942 195.918 114.975 197.845C84.5035 202.388 60.5729 197.312 55.181 183.049C50.1314 169.728 62.5513 151.684 85.3048 135.689C85.1541 136.432 85.0098 137.197 84.886 137.954C84.4313 140.728 84.1845 143.532 84.1478 146.343C71.0382 156.465 64.2158 166.378 66.9052 173.489C69.52 180.403 80.6219 183.345 96.4153 182.511C111.855 181.698 131.779 177.25 152.634 169.366C170.67 162.539 186.487 154.241 198.264 145.905C214.031 134.758 222.582 123.542 219.631 115.718C216.596 107.685 202.115 105.008 182.139 107.395C180.047 105.23 177.784 103.238 175.371 101.437C203.334 98.2051 224.887 103.486 229.967 116.92C235.409 131.288 220.567 151.124 194.348 167.973Z" fill="#4FC2A0"/>
</svg>
