<svg xmlns="http://www.w3.org/2000/svg" width="200" height="200" fill="none" viewBox="0 0 200 200"><g filter="url(#filter0_d)"><circle cx="100" cy="93" r="36" fill="#fff"/></g><path fill="#31373D" fill-rule="evenodd" d="M110.8 78.6C108.813 78.6 107.2 80.2128 107.2 82.2C107.2 84.1872 108.813 85.8 110.8 85.8C112.787 85.8 114.4 84.1872 114.4 82.2C114.4 80.2128 112.787 78.6 110.8 78.6ZM103.6 87.6C103.6 89.5872 101.987 91.2 100 91.2C98.0129 91.2 96.4001 89.5872 96.4001 87.6C96.4001 85.6128 98.0129 84 100 84C101.987 84 103.6 85.6128 103.6 87.6ZM105.4 94.8C105.4 92.8128 107.013 91.2 109 91.2C110.987 91.2 112.6 92.8128 112.6 94.8C112.6 96.7872 110.987 98.4 109 98.4C107.013 98.4 105.4 96.7872 105.4 94.8ZM94.8989 98.4C95.9771 101.653 99.9893 103.8 105.4 103.8C106.394 103.8 107.2 104.605 107.2 105.6C107.2 106.595 106.394 107.4 105.4 107.4H94.6001C94.4525 107.4 94.3067 107.382 94.1627 107.346L86.9627 105.546C86.1617 105.344 85.6001 104.626 85.6001 103.8V98.4C85.6001 97.6242 86.0951 96.9366 86.8313 96.6936L92.2313 94.8936C92.4023 94.8342 92.5805 94.8126 92.7605 94.809C92.7657 94.8083 92.7708 94.8066 92.7761 94.8049C92.7837 94.8025 92.7916 94.8 92.8001 94.8H98.2001C99.1937 94.8 100 95.6046 100 96.6C100 97.5954 99.1937 98.4 98.2001 98.4H94.8989Z" clip-rule="evenodd"/><mask id="mask0" width="30" height="30" x="85" y="78" mask-type="alpha" maskUnits="userSpaceOnUse"><path fill="#fff" fill-rule="evenodd" d="M110.8 78.6C108.813 78.6 107.2 80.2128 107.2 82.2C107.2 84.1872 108.813 85.8 110.8 85.8C112.787 85.8 114.4 84.1872 114.4 82.2C114.4 80.2128 112.787 78.6 110.8 78.6ZM103.6 87.6C103.6 89.5872 101.987 91.2 100 91.2C98.0129 91.2 96.4001 89.5872 96.4001 87.6C96.4001 85.6128 98.0129 84 100 84C101.987 84 103.6 85.6128 103.6 87.6ZM105.4 94.8C105.4 92.8128 107.013 91.2 109 91.2C110.987 91.2 112.6 92.8128 112.6 94.8C112.6 96.7872 110.987 98.4 109 98.4C107.013 98.4 105.4 96.7872 105.4 94.8ZM94.8989 98.4C95.9771 101.653 99.9893 103.8 105.4 103.8C106.394 103.8 107.2 104.605 107.2 105.6C107.2 106.595 106.394 107.4 105.4 107.4H94.6001C94.4525 107.4 94.3067 107.382 94.1627 107.346L86.9627 105.546C86.1617 105.344 85.6001 104.626 85.6001 103.8V98.4C85.6001 97.6242 86.0951 96.9366 86.8313 96.6936L92.2313 94.8936C92.4023 94.8342 92.5805 94.8126 92.7605 94.809C92.7657 94.8083 92.7708 94.8066 92.7761 94.8049C92.7837 94.8025 92.7916 94.8 92.8001 94.8H98.2001C99.1937 94.8 100 95.6046 100 96.6C100 97.5954 99.1937 98.4 98.2001 98.4H94.8989Z" clip-rule="evenodd"/></mask><g mask="url(#mask0)"><rect width="37.8" height="37.8" fill="#4FC2A0" transform="translate(82 75)"/></g><defs><filter id="filter0_d" width="200" height="200" x="0" y="0" color-interpolation-filters="sRGB" filterUnits="userSpaceOnUse"><feFlood flood-opacity="0" result="BackgroundImageFix"/><feColorMatrix in="SourceAlpha" type="matrix" values="0 0 0 0 0 0 0 0 0 0 0 0 0 0 0 0 0 0 127 0"/><feOffset dy="7"/><feGaussianBlur stdDeviation="32"/><feColorMatrix type="matrix" values="0 0 0 0 0 0 0 0 0 0 0 0 0 0 0 0 0 0 0.12 0"/><feBlend in2="BackgroundImageFix" mode="normal" result="effect1_dropShadow"/><feBlend in="SourceGraphic" in2="effect1_dropShadow" mode="normal" result="shape"/></filter></defs></svg>