<svg xmlns="http://www.w3.org/2000/svg" width="200" height="200" fill="none" viewBox="0 0 200 200"><g filter="url(#filter0_d)"><circle cx="100" cy="93" r="36" fill="#fff"/></g><path fill="#31373D" fill-rule="evenodd" d="M92.8 111C86.8438 111 82 106.156 82 100.2C82 94.2438 86.8438 89.4 92.8 89.4C93.6406 89.4 94.4758 89.508 95.329 89.7258L109.527 75.5274C109.864 75.189 110.321 75 110.8 75H116.2C117.195 75 118 75.8046 118 76.8V87.6C118 88.5954 117.195 89.4 116.2 89.4H112.6V94.8C112.6 95.7954 111.795 96.6 110.8 96.6H104.345L103.274 97.671C103.492 98.5242 103.6 99.3594 103.6 100.2C103.6 106.156 98.7562 111 92.8 111M94.6 100.2C94.6 101.194 93.7954 102 92.8 102C91.8064 102 91 101.194 91 100.2C91 99.2046 91.8064 98.4 92.8 98.4C93.7954 98.4 94.6 99.2046 94.6 100.2M92.8 93C88.8292 93 85.6 96.2292 85.6 100.2C85.6 104.171 88.8292 107.4 92.8 107.4C96.7708 107.4 100 104.171 100 100.2C100 99.4188 99.8506 98.625 99.5428 97.7718C99.307 97.1148 99.4708 96.3822 99.964 95.889L102.327 93.5274C102.664 93.189 103.121 93 103.6 93H109V87.6C109 86.6046 109.805 85.8 110.8 85.8H114.4V78.6H111.545L97.111 93.036C96.6178 93.5274 95.8834 93.6912 95.2282 93.4572C94.375 93.1494 93.5812 93 92.8 93" clip-rule="evenodd"/><mask id="mask0" width="36" height="36" x="82" y="75" mask-type="alpha" maskUnits="userSpaceOnUse"><path fill="#fff" fill-rule="evenodd" d="M92.8 111C86.8438 111 82 106.156 82 100.2C82 94.2438 86.8438 89.4 92.8 89.4C93.6406 89.4 94.4758 89.508 95.329 89.7258L109.527 75.5274C109.864 75.189 110.321 75 110.8 75H116.2C117.195 75 118 75.8046 118 76.8V87.6C118 88.5954 117.195 89.4 116.2 89.4H112.6V94.8C112.6 95.7954 111.795 96.6 110.8 96.6H104.345L103.274 97.671C103.492 98.5242 103.6 99.3594 103.6 100.2C103.6 106.156 98.7562 111 92.8 111M94.6 100.2C94.6 101.194 93.7954 102 92.8 102C91.8064 102 91 101.194 91 100.2C91 99.2046 91.8064 98.4 92.8 98.4C93.7954 98.4 94.6 99.2046 94.6 100.2M92.8 93C88.8292 93 85.6 96.2292 85.6 100.2C85.6 104.171 88.8292 107.4 92.8 107.4C96.7708 107.4 100 104.171 100 100.2C100 99.4188 99.8506 98.625 99.5428 97.7718C99.307 97.1148 99.4708 96.3822 99.964 95.889L102.327 93.5274C102.664 93.189 103.121 93 103.6 93H109V87.6C109 86.6046 109.805 85.8 110.8 85.8H114.4V78.6H111.545L97.111 93.036C96.6178 93.5274 95.8834 93.6912 95.2282 93.4572C94.375 93.1494 93.5812 93 92.8 93" clip-rule="evenodd"/></mask><g mask="url(#mask0)"><rect width="37.8" height="37.8" fill="#4FC2A0" transform="translate(82 75)"/></g><defs><filter id="filter0_d" width="200" height="200" x="0" y="0" color-interpolation-filters="sRGB" filterUnits="userSpaceOnUse"><feFlood flood-opacity="0" result="BackgroundImageFix"/><feColorMatrix in="SourceAlpha" type="matrix" values="0 0 0 0 0 0 0 0 0 0 0 0 0 0 0 0 0 0 127 0"/><feOffset dy="7"/><feGaussianBlur stdDeviation="32"/><feColorMatrix type="matrix" values="0 0 0 0 0 0 0 0 0 0 0 0 0 0 0 0 0 0 0.12 0"/><feBlend in2="BackgroundImageFix" mode="normal" result="effect1_dropShadow"/><feBlend in="SourceGraphic" in2="effect1_dropShadow" mode="normal" result="shape"/></filter></defs></svg>