<svg width="200" height="200" viewBox="0 0 200 200" fill="none" xmlns="http://www.w3.org/2000/svg">
<g filter="url(#filter0_d)">
<circle cx="100" cy="93" r="36" fill="white"/>
</g>
<path fill-rule="evenodd" clip-rule="evenodd" d="M118 109.2V76.8C118 75.8064 117.195 75 116.2 75H103.6C102.605 75 101.8 75.8064 101.8 76.8V109.2C101.8 110.195 102.605 111 103.6 111H116.2C117.195 111 118 110.195 118 109.2V109.2ZM85.6 89.4C85.6 90.3936 84.7954 91.2 83.8 91.2C82.8046 91.2 82 90.3936 82 89.4V85.8C82 84.8064 82.8046 84 83.8 84C84.7954 84 85.6 84.8064 85.6 85.8V89.4ZM85.6 100.2V96.6C85.6 95.6046 84.7954 94.8 83.8 94.8C82.8046 94.8 82 95.6046 82 96.6V100.2C82 101.195 82.8046 102 83.8 102C84.7954 102 85.6 101.195 85.6 100.2M87.4 109.2C87.4 108.205 86.5954 107.4 85.6 107.4C85.6 106.405 84.7954 105.6 83.8 105.6C82.8046 105.6 82 106.405 82 107.4V109.2C82 110.195 82.8046 111 83.8 111H85.6C86.5954 111 87.4 110.195 87.4 109.2M85.6 78.6C86.5954 78.6 87.4 77.7936 87.4 76.8C87.4 75.8064 86.5954 75 85.6 75H83.8C82.8046 75 82 75.8064 82 76.8V78.6C82 79.5936 82.8046 80.4 83.8 80.4C84.7954 80.4 85.6 79.5936 85.6 78.6M91 76.8C91 77.7936 91.8046 78.6 92.8 78.6H96.4C97.3954 78.6 98.2 77.7936 98.2 76.8C98.2 75.8064 97.3954 75 96.4 75H92.8C91.8046 75 91 75.8064 91 76.8M98.2 109.2C98.2 108.205 97.3954 107.4 96.4 107.4H92.8C91.8046 107.4 91 108.205 91 109.2C91 110.195 91.8046 111 92.8 111H96.4C97.3954 111 98.2 110.195 98.2 109.2M105.4 107.4H114.4V78.6H105.4V107.4Z" fill="#4FC2A0"/>
<mask id="mask0" mask-type="alpha" maskUnits="userSpaceOnUse" x="82" y="75" width="36" height="36">
<path fill-rule="evenodd" clip-rule="evenodd" d="M118 109.2V76.8C118 75.8064 117.195 75 116.2 75H103.6C102.605 75 101.8 75.8064 101.8 76.8V109.2C101.8 110.195 102.605 111 103.6 111H116.2C117.195 111 118 110.195 118 109.2V109.2ZM85.6 89.4C85.6 90.3936 84.7954 91.2 83.8 91.2C82.8046 91.2 82 90.3936 82 89.4V85.8C82 84.8064 82.8046 84 83.8 84C84.7954 84 85.6 84.8064 85.6 85.8V89.4ZM85.6 100.2V96.6C85.6 95.6046 84.7954 94.8 83.8 94.8C82.8046 94.8 82 95.6046 82 96.6V100.2C82 101.195 82.8046 102 83.8 102C84.7954 102 85.6 101.195 85.6 100.2M87.4 109.2C87.4 108.205 86.5954 107.4 85.6 107.4C85.6 106.405 84.7954 105.6 83.8 105.6C82.8046 105.6 82 106.405 82 107.4V109.2C82 110.195 82.8046 111 83.8 111H85.6C86.5954 111 87.4 110.195 87.4 109.2M85.6 78.6C86.5954 78.6 87.4 77.7936 87.4 76.8C87.4 75.8064 86.5954 75 85.6 75H83.8C82.8046 75 82 75.8064 82 76.8V78.6C82 79.5936 82.8046 80.4 83.8 80.4C84.7954 80.4 85.6 79.5936 85.6 78.6M91 76.8C91 77.7936 91.8046 78.6 92.8 78.6H96.4C97.3954 78.6 98.2 77.7936 98.2 76.8C98.2 75.8064 97.3954 75 96.4 75H92.8C91.8046 75 91 75.8064 91 76.8M98.2 109.2C98.2 108.205 97.3954 107.4 96.4 107.4H92.8C91.8046 107.4 91 108.205 91 109.2C91 110.195 91.8046 111 92.8 111H96.4C97.3954 111 98.2 110.195 98.2 109.2M105.4 107.4H114.4V78.6H105.4V107.4Z" fill="white"/>
</mask>
<g mask="url(#mask0)">
<rect width="37.8" height="37.8" transform="translate(82 75)" fill="#4FC2A0"/>
</g>
<defs>
<filter id="filter0_d" x="0" y="0" width="200" height="200" filterUnits="userSpaceOnUse" color-interpolation-filters="sRGB">
<feFlood flood-opacity="0" result="BackgroundImageFix"/>
<feColorMatrix in="SourceAlpha" type="matrix" values="0 0 0 0 0 0 0 0 0 0 0 0 0 0 0 0 0 0 127 0"/>
<feOffset dy="7"/>
<feGaussianBlur stdDeviation="32"/>
<feColorMatrix type="matrix" values="0 0 0 0 0 0 0 0 0 0 0 0 0 0 0 0 0 0 0.12 0"/>
<feBlend mode="normal" in2="BackgroundImageFix" result="effect1_dropShadow"/>
<feBlend mode="normal" in="SourceGraphic" in2="effect1_dropShadow" result="shape"/>
</filter>
</defs>
</svg>
