<svg xmlns="http://www.w3.org/2000/svg" width="18" height="20" fill="none" viewBox="0 0 18 20"><path fill="#4DADF3" d="M18 1.99951H4C3.46957 1.99951 2.96086 2.21023 2.58579 2.5853C2.21071 2.96037 2 3.46908 2 3.99951C2 4.52995 2.21071 5.03865 2.58579 5.41373C2.96086 5.7888 3.46957 5.99951 4 5.99951H18V18.9995C18 19.2647 17.8946 19.5191 17.7071 19.7066C17.5196 19.8942 17.2652 19.9995 17 19.9995H4C2.93913 19.9995 1.92172 19.5781 1.17157 18.8279C0.421427 18.0778 0 17.0604 0 15.9995V3.99951C0 2.93865 0.421427 1.92123 1.17157 1.17108C1.92172 0.420939 2.93913 -0.000488281 4 -0.000488281H17C17.2652 -0.000488281 17.5196 0.104869 17.7071 0.292405C17.8946 0.479941 18 0.734295 18 0.999512V1.99951ZM2 15.9995C2 16.5299 2.21071 17.0387 2.58579 17.4137C2.96086 17.7888 3.46957 17.9995 4 17.9995H16V7.99951H4C3.29782 8.00064 2.60784 7.81606 2 7.46451V15.9995ZM17 4.99951H4C3.73478 4.99951 3.48043 4.89416 3.29289 4.70662C3.10536 4.51908 3 4.26473 3 3.99951C3 3.7343 3.10536 3.47994 3.29289 3.29241C3.48043 3.10487 3.73478 2.99951 4 2.99951H17V4.99951Z"/></svg>