<svg width="200" height="200" viewBox="0 0 200 200" fill="none" xmlns="http://www.w3.org/2000/svg">
<g filter="url(#filter0_d)">
<circle cx="100" cy="93" r="36" fill="white"/>
</g>
<path fill-rule="evenodd" clip-rule="evenodd" d="M82 98.9817C82 104.299 87.9961 109.629 99.9883 114.971C111.98 109.641 117.977 104.312 117.977 98.9817C117.977 98.22 117.98 96.5927 117.984 94.5793L117.984 94.574V94.5715C117.997 88.6601 118.016 79.4289 117.977 78.9948C117.977 77.4606 117.388 77.104 115.758 76.1172L115.758 76.1172C115.265 75.8184 114.676 75.4619 113.979 74.9974C110.981 72.9987 105.975 71 99.9883 71C93.1192 71 86.3208 74.7818 85.9974 74.9974C85.3006 75.4619 84.7118 75.8185 84.2184 76.1172C82.5888 77.104 82 77.4606 82 78.9948V98.9817ZM113.983 96.4927C113.98 97.7501 113.979 98.5214 113.979 98.9817C113.979 102.008 109.526 106.125 99.9901 110.578C90.4527 106.115 85.9974 101.997 85.9974 98.9817V79.721L86.2529 79.5624L86.2529 79.5624L86.2531 79.5623L86.2532 79.5622L86.2532 79.5622C86.8995 79.1613 87.7416 78.6388 88.2147 78.3234C90.052 77.0986 95.6673 74.9974 99.9883 74.9974C104.506 74.9974 108.811 76.3563 111.762 78.3234C112.235 78.6389 113.077 79.1615 113.724 79.5625L113.998 79.7329C114.003 80.9172 114.005 84.7463 113.997 89.2077C113.995 90.2419 113.993 91.3258 113.991 92.5888L113.983 96.4927ZM105.984 86.9896C108.192 86.9896 109.982 88.7793 109.982 90.987V98.9817C109.982 101.189 108.192 102.979 105.984 102.979H93.9922C91.7845 102.979 89.9948 101.189 89.9948 98.9817V90.987C89.9948 88.7793 91.7845 86.9896 93.9922 86.9896V82.9922C93.9922 79.6806 96.6767 76.9961 99.9883 76.9961C103.3 76.9961 105.984 79.6806 105.984 82.9922V86.9896ZM101.987 82.9922V86.9896H97.9896V82.9922C97.9896 81.8883 98.8844 80.9935 99.9883 80.9935C101.092 80.9935 101.987 81.8883 101.987 82.9922ZM93.9922 98.9817V90.987H105.984V98.9817H93.9922ZM97.9896 94.9843C97.9896 96.0882 98.8844 96.983 99.9883 96.983C101.092 96.983 101.987 96.0882 101.987 94.9843C101.987 93.8805 101.092 92.9857 99.9883 92.9857C98.8844 92.9857 97.9896 93.8805 97.9896 94.9843Z" fill="#4FC2A0"/>
<defs>
<filter id="filter0_d" x="0" y="0" width="200" height="200" filterUnits="userSpaceOnUse" color-interpolation-filters="sRGB">
<feFlood flood-opacity="0" result="BackgroundImageFix"/>
<feColorMatrix in="SourceAlpha" type="matrix" values="0 0 0 0 0 0 0 0 0 0 0 0 0 0 0 0 0 0 127 0"/>
<feOffset dy="7"/>
<feGaussianBlur stdDeviation="32"/>
<feColorMatrix type="matrix" values="0 0 0 0 0 0 0 0 0 0 0 0 0 0 0 0 0 0 0.12 0"/>
<feBlend mode="normal" in2="BackgroundImageFix" result="effect1_dropShadow"/>
<feBlend mode="normal" in="SourceGraphic" in2="effect1_dropShadow" result="shape"/>
</filter>
</defs>
</svg>
