<svg xmlns="http://www.w3.org/2000/svg" width="15" height="12" fill="none" viewBox="0 0 15 12"><path fill="#4DADF3" d="M10.2 1.69997C9.6933 1.69989 9.20683 1.89872 8.84526 2.25369C8.48369 2.60865 8.27592 3.09137 8.26666 3.59797L8.24799 4.64797C8.2469 4.70435 8.2339 4.75986 8.20985 4.81086C8.18579 4.86186 8.15123 4.90719 8.10842 4.94389C8.06561 4.9806 8.01553 5.00783 7.96146 5.02381C7.90738 5.0398 7.85054 5.04417 7.79466 5.03664L6.75399 4.89531C5.38466 4.70864 4.07266 4.07797 2.81399 3.02931C2.41533 5.23597 3.19399 6.76464 5.06933 7.94397L6.23399 8.67597C6.28933 8.71075 6.3353 8.75856 6.36789 8.81521C6.40048 8.87187 6.41869 8.93564 6.42092 9.00096C6.42316 9.06628 6.40936 9.13115 6.38072 9.1899C6.35208 9.24865 6.30949 9.29949 6.25666 9.33797L5.19533 10.1133C5.82666 10.1526 6.42599 10.1246 6.92333 10.026C10.0687 9.39797 12.16 7.03131 12.16 3.12731C12.16 2.80864 11.4853 1.69997 10.2 1.69997ZM6.93333 3.57331C6.94496 2.93067 7.14592 2.30575 7.51103 1.77679C7.87615 1.24782 8.38919 0.838321 8.98594 0.599552C9.58268 0.360784 10.2366 0.303361 10.8658 0.434473C11.495 0.565585 12.0716 0.879405 12.5233 1.33664C12.9973 1.33331 13.4007 1.45331 14.3027 0.906641C14.0793 1.99997 13.9693 2.47464 13.4933 3.12731C13.4933 8.22197 10.362 10.6993 7.18466 11.3333C5.00599 11.768 1.83799 11.054 0.929993 10.106C1.39266 10.07 3.27266 9.86797 4.35933 9.07264C3.43999 8.46664 -0.219341 6.31331 2.18533 0.523975C3.31399 1.84197 4.45866 2.73931 5.61866 3.21531C6.39066 3.53197 6.57999 3.52531 6.93399 3.57397L6.93333 3.57331Z"/></svg>