<svg width="16" height="16" viewBox="0 0 16 16" fill="none" xmlns="http://www.w3.org/2000/svg">
<path d="M11.7848 4.51843L11.4553 4.84792C12.2415 5.7077 12.6775 6.83058 12.6775 7.99564C12.6775 9.1607 12.2415 10.2836 11.4553 11.1434L11.7848 11.4729C12.6591 10.5244 13.1445 9.28174 13.1445 7.9918C13.1445 6.70185 12.6591 5.45914 11.7848 4.51074V4.51843Z" fill="#292535"/>
<path d="M4.85561 4.54694C5.71539 3.76073 6.83827 3.32473 8.00333 3.32473C9.16839 3.32473 10.2913 3.76073 11.1511 4.54694L11.4805 4.21745C10.5321 3.3431 9.28943 2.85767 7.99949 2.85767C6.70954 2.85767 5.46683 3.3431 4.51843 4.21745L4.85561 4.54694Z" fill="#292535"/>
<path d="M4.547 11.1467C3.76172 10.2871 3.3263 9.16487 3.3263 8.00059C3.3263 6.8363 3.76172 5.7141 4.547 4.85451L4.21752 4.52502C3.34316 5.47343 2.85773 6.71613 2.85773 8.00608C2.85773 9.29602 3.34316 10.5387 4.21752 11.4871L4.547 11.1467Z" fill="#292535"/>
<path d="M11.1467 11.4509C10.2869 12.2371 9.164 12.6731 7.99894 12.6731C6.83388 12.6731 5.711 12.2371 4.85122 11.4509L4.52173 11.7804C5.47013 12.6547 6.71284 13.1401 8.00278 13.1401C9.29273 13.1401 10.5354 12.6547 11.4838 11.7804L11.1467 11.4509Z" fill="#292535"/>
<path d="M7.9989 14C6.81231 13.9998 5.65242 13.6477 4.6659 12.9884C3.67937 12.329 2.91051 11.3919 2.45652 10.2956C2.00253 9.19928 1.8838 7.99298 2.11534 6.82919C2.34689 5.66541 2.91831 4.59641 3.75736 3.75736C4.59641 2.91831 5.66541 2.34689 6.82919 2.11534C7.99298 1.8838 9.19928 2.00253 10.2956 2.45652C11.3919 2.91051 12.329 3.67937 12.9884 4.6659C13.6477 5.65242 13.9998 6.81231 14 7.9989C14.0001 8.78702 13.845 9.56744 13.5435 10.2956C13.242 11.0237 12.7999 11.6854 12.2426 12.2426C11.6854 12.7999 11.0237 13.242 10.2956 13.5435C9.56744 13.845 8.78702 14.0001 7.9989 14ZM7.9989 2.46788C6.90569 2.46875 5.83726 2.79369 4.92868 3.40164C4.02009 4.00958 3.31213 4.87324 2.89427 5.88345C2.47642 6.89366 2.36743 8.00507 2.58108 9.07721C2.79473 10.1494 3.32142 11.1341 4.0946 11.907C4.86778 12.6798 5.85272 13.2061 6.92495 13.4194C7.99717 13.6326 9.10854 13.5231 10.1186 13.1049C11.1286 12.6866 11.992 11.9783 12.5996 11.0695C13.2072 10.1607 13.5317 9.09212 13.5321 7.9989C13.5324 7.27229 13.3895 6.55275 13.1115 5.88142C12.8335 5.21009 12.4259 4.60015 11.912 4.08646C11.3981 3.57277 10.788 3.16541 10.1166 2.88768C9.44511 2.60995 8.72552 2.4673 7.9989 2.46788Z" fill="#292535"/>
<path d="M8 14C11.325 14 14 11.325 14 8C14 4.67498 11.325 2 8 2C4.67498 2 2 4.67498 2 8C2 11.325 4.67498 14 8 14Z" fill="#2775CA"/>
<path d="M9.64997 8.95004C9.64997 8.07505 9.12497 7.77505 8.07497 7.65007C7.32497 7.55005 7.17497 7.35007 7.17497 7.00003C7.17497 6.64999 7.42499 6.42505 7.92497 6.42505C8.37497 6.42505 8.62499 6.57505 8.74997 6.95005C8.77499 7.02505 8.84999 7.07503 8.92499 7.07503H9.32495C9.42497 7.07503 9.49997 7.00003 9.49997 6.90007V6.87505C9.39995 6.32502 8.94995 5.90004 8.37497 5.85006V5.25006C8.37497 5.15004 8.29997 5.07504 8.17499 5.05002H7.79999C7.69997 5.05002 7.62497 5.12502 7.59995 5.25006V5.82504C6.84995 5.92506 6.37499 6.42505 6.37499 7.05007C6.37499 7.87507 6.87497 8.20004 7.92497 8.32508C8.62499 8.45006 8.84999 8.60006 8.84999 9.00008C8.84999 9.4001 8.49995 9.67508 8.02499 9.67508C7.37495 9.67508 7.14995 9.40004 7.07495 9.02504C7.04999 8.92508 6.97499 8.87504 6.89999 8.87504H6.47495C6.37499 8.87504 6.29999 8.95004 6.29999 9.05006V9.07508C6.39995 9.70004 6.79997 10.15 7.62497 10.2751V10.8751C7.62497 10.975 7.69997 11.05 7.82495 11.0751H8.19995C8.29997 11.0751 8.37497 11.0001 8.39999 10.8751V10.2751C9.14999 10.15 9.64997 9.62504 9.64997 8.95004Z" fill="white"/>
<path d="M6.72502 11.575C4.77501 10.8751 3.77498 8.70005 4.50003 6.77499C4.87503 5.72498 5.70003 4.92499 6.72502 4.54999C6.82504 4.50001 6.87502 4.42501 6.87502 4.29997V3.94998C6.87502 3.84996 6.82504 3.77496 6.72502 3.75C6.7 3.75 6.65002 3.75 6.625 3.77496C4.25 4.52497 2.94998 7.05003 3.69998 9.42504C4.14998 10.825 5.22501 11.9001 6.625 12.3501C6.72502 12.4001 6.82504 12.3501 6.85 12.25C6.87502 12.2251 6.87502 12.2001 6.87502 12.1501V11.8C6.87502 11.725 6.80002 11.6251 6.72502 11.575ZM9.37506 3.77496C9.27504 3.72498 9.17502 3.77496 9.15006 3.87498C9.12504 3.9 9.12504 3.92496 9.12504 3.975V4.32499C9.12504 4.42501 9.20004 4.52497 9.27504 4.57501C11.2251 5.27498 12.2251 7.45 11.5 9.37506C11.125 10.4251 10.3 11.2251 9.27504 11.6001C9.17502 11.65 9.12504 11.725 9.12504 11.8501V12.2001C9.12504 12.3001 9.17502 12.3751 9.27504 12.4001C9.30006 12.4001 9.35004 12.4001 9.37506 12.3751C11.7501 11.6251 13.0501 9.10002 12.3001 6.72501C11.8501 5.3 10.75 4.22496 9.37506 3.77496Z" fill="white"/>
</svg>
