<svg xmlns="http://www.w3.org/2000/svg" width="16" height="16" fill="none" viewBox="0 0 16 16"><path fill="#757575" d="M11.7848 4.5184L11.4553 4.84789C12.2415 5.70767 12.6775 6.83055 12.6775 7.99561C12.6775 9.16067 12.2415 10.2835 11.4553 11.1433L11.7848 11.4728C12.6591 10.5244 13.1445 9.28171 13.1445 7.99177C13.1445 6.70182 12.6591 5.45911 11.7848 4.51071V4.5184Z"/><path fill="#757575" d="M4.85555 4.54694C5.71533 3.76073 6.83821 3.32473 8.00327 3.32473C9.16833 3.32473 10.2912 3.76073 11.151 4.54694L11.4805 4.21745C10.5321 3.3431 9.28937 2.85767 7.99943 2.85767C6.70948 2.85767 5.46677 3.3431 4.51837 4.21745L4.85555 4.54694Z"/><path fill="#757575" d="M4.54694 11.1466C3.76166 10.287 3.32624 9.16484 3.32624 8.00056C3.32624 6.83627 3.76166 5.71407 4.54694 4.85448L4.21745 4.52499C3.3431 5.47339 2.85767 6.7161 2.85767 8.00605C2.85767 9.29599 3.3431 10.5387 4.21745 11.4871L4.54694 11.1466Z"/><path fill="#757575" d="M11.1466 11.4509C10.2868 12.2371 9.16394 12.6731 7.99888 12.6731C6.83382 12.6731 5.71094 12.2371 4.85116 11.4509L4.52167 11.7804C5.47007 12.6547 6.71278 13.1401 8.00272 13.1401C9.29267 13.1401 10.5354 12.6547 11.4838 11.7804L11.1466 11.4509Z"/><path fill="#757575" d="M10.0802 6.90059C10.0143 6.21306 9.42122 5.98242 8.67108 5.91213V4.96539H8.09118V5.89455C7.93852 5.89455 7.78256 5.89455 7.6277 5.89455V4.96539H7.05219V5.91872H5.87592V6.53925C5.87592 6.53925 6.30425 6.53157 6.29766 6.53925C6.37489 6.53076 6.45241 6.55257 6.51387 6.60011C6.57534 6.64764 6.61595 6.71717 6.62715 6.79406V9.40361C6.6255 9.43073 6.61843 9.45724 6.60636 9.48157C6.59428 9.50591 6.57745 9.52758 6.55686 9.54529C6.53665 9.56335 6.51301 9.57713 6.48734 9.58581C6.46167 9.5945 6.43451 9.5979 6.40749 9.59582C6.41518 9.60241 5.98575 9.59582 5.98575 9.59582L5.87592 10.2888H7.04121V11.2575H7.62111V10.3031H8.08459V11.2531H8.66559V10.2954C9.64527 10.2361 10.3284 9.9945 10.4141 9.07742C10.4833 8.33936 10.1362 8.00987 9.58157 7.87698C9.91875 7.71114 10.1274 7.40361 10.0802 6.90059ZM9.26746 8.9632C9.26746 9.68368 8.03297 9.60131 7.63978 9.60131V8.32289C8.03297 8.32399 9.26746 8.21086 9.26746 8.9632ZM8.99838 7.16199C8.99838 7.82097 7.96817 7.74079 7.64088 7.74079V6.57879C7.96817 6.57879 8.99838 6.47555 8.99838 7.16199Z"/><path fill="#757575" d="M7.9989 14C6.81231 13.9998 5.65242 13.6477 4.6659 12.9883C3.67937 12.329 2.91051 11.3919 2.45652 10.2956C2.00253 9.19925 1.8838 7.99294 2.11534 6.82916C2.34689 5.66538 2.91831 4.59638 3.75736 3.75733C4.59641 2.91828 5.66541 2.34686 6.82919 2.11531C7.99298 1.88377 9.19928 2.0025 10.2956 2.45648C11.3919 2.91047 12.329 3.67934 12.9884 4.66587C13.6477 5.65239 13.9998 6.81228 14 7.99887C14.0001 8.78699 13.845 9.56741 13.5435 10.2956C13.242 11.0237 12.7999 11.6853 12.2426 12.2426C11.6854 12.7999 11.0237 13.2419 10.2956 13.5435C9.56744 13.845 8.78702 14.0001 7.9989 14ZM7.9989 2.46785C6.90569 2.46872 5.83726 2.79366 4.92868 3.40161C4.02009 4.00955 3.31213 4.87321 2.89427 5.88342C2.47642 6.89363 2.36743 8.00504 2.58108 9.07718C2.79473 10.1493 3.32142 11.1341 4.0946 11.9069C4.86778 12.6798 5.85272 13.2061 6.92495 13.4193C7.99717 13.6325 9.10854 13.5231 10.1186 13.1049C11.1286 12.6866 11.992 11.9783 12.5996 11.0695C13.2072 10.1606 13.5317 9.09209 13.5321 7.99887C13.5324 7.27226 13.3895 6.55272 13.1115 5.88139C12.8335 5.21006 12.4259 4.60012 11.912 4.08643C11.3981 3.57274 10.788 3.16538 10.1166 2.88765C9.44511 2.60992 8.72552 2.46727 7.9989 2.46785Z"/></svg>