<svg width="16" height="16" viewBox="0 0 16 16" fill="none" xmlns="http://www.w3.org/2000/svg">
<path d="M11.7848 4.51843L11.4553 4.84792C12.2415 5.7077 12.6775 6.83058 12.6775 7.99564C12.6775 9.1607 12.2415 10.2836 11.4553 11.1434L11.7848 11.4729C12.6591 10.5244 13.1445 9.28174 13.1445 7.9918C13.1445 6.70185 12.6591 5.45914 11.7848 4.51074V4.51843Z" fill="#757575"/>
<path d="M4.85561 4.54694C5.71539 3.76073 6.83827 3.32473 8.00333 3.32473C9.16839 3.32473 10.2913 3.76073 11.1511 4.54694L11.4805 4.21745C10.5321 3.3431 9.28943 2.85767 7.99949 2.85767C6.70954 2.85767 5.46683 3.3431 4.51843 4.21745L4.85561 4.54694Z" fill="#757575"/>
<path d="M4.547 11.1467C3.76172 10.2871 3.3263 9.16487 3.3263 8.00059C3.3263 6.8363 3.76172 5.7141 4.547 4.85451L4.21752 4.52502C3.34316 5.47343 2.85773 6.71613 2.85773 8.00608C2.85773 9.29602 3.34316 10.5387 4.21752 11.4871L4.547 11.1467Z" fill="#757575"/>
<path d="M11.1467 11.4509C10.2869 12.2371 9.164 12.6731 7.99894 12.6731C6.83388 12.6731 5.711 12.2371 4.85122 11.4509L4.52173 11.7804C5.47013 12.6547 6.71284 13.1401 8.00278 13.1401C9.29273 13.1401 10.5354 12.6547 11.4838 11.7804L11.1467 11.4509Z" fill="#757575"/>
<path d="M7.9989 14C6.81231 13.9998 5.65242 13.6477 4.6659 12.9884C3.67937 12.329 2.91051 11.3919 2.45652 10.2956C2.00253 9.19928 1.8838 7.99298 2.11534 6.82919C2.34689 5.66541 2.91831 4.59641 3.75736 3.75736C4.59641 2.91831 5.66541 2.34689 6.82919 2.11534C7.99298 1.8838 9.19928 2.00253 10.2956 2.45652C11.3919 2.91051 12.329 3.67937 12.9884 4.6659C13.6477 5.65242 13.9998 6.81231 14 7.9989C14.0001 8.78702 13.845 9.56744 13.5435 10.2956C13.242 11.0237 12.7999 11.6854 12.2426 12.2426C11.6854 12.7999 11.0237 13.242 10.2956 13.5435C9.56744 13.845 8.78702 14.0001 7.9989 14ZM7.9989 2.46788C6.90569 2.46875 5.83726 2.79369 4.92868 3.40164C4.02009 4.00958 3.31213 4.87324 2.89427 5.88345C2.47642 6.89366 2.36743 8.00507 2.58108 9.07721C2.79473 10.1494 3.32142 11.1341 4.0946 11.907C4.86778 12.6798 5.85272 13.2061 6.92495 13.4194C7.99717 13.6326 9.10854 13.5231 10.1186 13.1049C11.1286 12.6866 11.992 11.9783 12.5996 11.0695C13.2072 10.1607 13.5317 9.09212 13.5321 7.9989C13.5324 7.27229 13.3895 6.55275 13.1115 5.88142C12.8335 5.21009 12.4259 4.60015 11.912 4.08646C11.3981 3.57277 10.788 3.16541 10.1166 2.88768C9.44511 2.60995 8.72552 2.4673 7.9989 2.46788Z" fill="#757575"/>
<path d="M8.03774 4.5L6 7.97826L8.03774 7.0864L10 7.97826L8.03774 4.5Z" fill="#757575"/>
<path d="M8.04428 11.6L9.91302 8.81737L8.04428 9.75382L6.17389 8.81737L8.04428 11.6Z" fill="#757575"/>
<path d="M8.03636 7.45648L6 8.30264L8.03636 9.36953L10 8.30264L8.03636 7.45648Z" fill="#757575"/>
</svg>
